<svg viewBox="0 0 119 91" fill="none" xmlns="http://www.w3.org/2000/svg">
<g clip-path="url(#clip0_2046_10378)">
<path d="M113.98 42.7825L106.651 42.5582L73.8102 18.2208C71.8802 16.797 68.519 16.4218 66.2804 17.3962L14.8016 39.756L6.02161 39.4858L5.04838 45.0357L5.01306 45.0293C4.91992 44.9396 4.86093 45.7652 4.79224 46.4436L4.64816 47.2355C4.64816 47.2355 4.64176 47.2707 4.64981 47.3267L4.66747 47.3299C4.66747 47.3299 4.68037 47.4596 4.68522 47.5332C4.68202 47.5508 4.67561 47.586 4.69007 47.6068C4.69492 47.6804 4.69977 47.754 4.71908 47.8484C4.71267 47.8836 4.73838 47.9428 4.73198 47.978C4.75129 48.0724 4.75614 48.146 4.77544 48.2404C4.78349 48.2965 4.79155 48.3525 4.82046 48.3941C4.83976 48.4885 4.87673 48.5861 4.89924 48.6629C4.92495 48.7222 4.933 48.7782 4.95871 48.8374C4.99567 48.935 5.03264 49.0327 5.0728 49.1127C5.09851 49.1719 5.12422 49.2311 5.15313 49.2727C5.20775 49.3736 5.26558 49.4568 5.34106 49.5433C5.36997 49.5849 5.39888 49.6265 5.44545 49.6714C5.54984 49.7994 5.67509 49.9131 5.80034 50.0268L43.7067 78.1039C45.6367 79.5277 48.9979 79.9029 51.2365 78.9284L110.678 53.1085C111.946 52.5574 112.526 50.7722 112.526 50.7722L113.986 42.7473L113.98 42.7825Z" fill="#DD8600" stroke="black" stroke-width="0.5" stroke-miterlimit="10"/>
<path d="M112.744 40.2489L74.8587 12.1574C72.9287 10.7336 69.5674 10.3584 67.3288 11.3329L7.88723 37.1528C5.6486 38.1272 5.40556 40.0647 7.3179 41.4853L45.2242 69.5624C47.1542 70.9862 50.5154 71.3614 52.7541 70.3869L112.196 44.567C114.434 43.5926 114.677 41.6551 112.765 40.2345L112.744 40.2489Z" fill="#F1AC2A" stroke="black" stroke-width="0.5" stroke-miterlimit="10"/>
<path d="M110.488 41.2202L72.5991 13.1463C71.7465 12.5185 70.2617 12.3574 69.2731 12.7775L9.8139 38.5942C8.82537 39.0143 8.72145 39.8863 9.57406 40.5141L47.4804 68.5912C48.333 69.219 49.8178 69.3801 50.8063 68.9599L110.248 43.14C111.236 42.7199 111.34 41.848 110.505 41.2234L110.488 41.2202Z" fill="#EC9500"/>
<path d="M69.8365 12.5892L47.3988 22.2154L9.72569 38.5782C8.73716 38.9984 8.63325 39.8703 9.48585 40.4981L10.3706 41.15L73.5064 13.875L72.4932 13.1271C71.8188 12.6226 70.7562 12.4474 69.8542 12.5924L69.8365 12.5892Z" fill="#DD8600"/>
<path d="M18.7856 47.3351L21.4542 49.3114L84.2689 21.7963L81.8106 19.9673L18.7856 47.3351Z" fill="#DD8600"/>
<path d="M29.542 55.2917L32.2106 57.268L95.0252 29.7528L92.567 27.9238L29.542 55.2917Z" fill="#DD8600"/>
<path d="M40.1988 63.194L42.9669 65.2248L105.782 37.7096L103.2 35.8581L40.1988 63.194Z" fill="#DD8600"/>
<path d="M21.5991 36.484L28.383 41.6089L30.9824 39.7546L22.1914 33.2283L21.5991 36.484Z" fill="#C96E00"/>
<path d="M32.2704 44.607L39.0688 49.7527L41.7034 47.7049L32.8948 41.1753L32.2704 44.607Z" fill="#C96E00"/>
<path d="M42.9736 52.554L49.772 57.6997L52.4097 55.6343L43.5979 49.1223L42.9736 52.554Z" fill="#C96E00"/>
<path d="M37.8888 29.4664L44.6904 34.5946L47.2994 32.6875L38.4907 26.158L37.8888 29.4664Z" fill="#C96E00"/>
<path d="M48.61 37.4166L55.3939 42.5416L58.0029 40.6345L49.2119 34.1082L48.61 37.4166Z" fill="#C96E00"/>
<path d="M59.3131 45.3637L66.1147 50.4918L68.7237 48.5848L59.915 42.0552L59.3131 45.3637Z" fill="#C96E00"/>
<path d="M54.2156 22.3465L60.9995 27.4714L63.6165 25.6204L54.8047 19.1084L54.2156 22.3465Z" fill="#C96E00"/>
<path d="M64.9189 30.2933L71.7205 35.4214L74.3199 33.5672L65.5112 27.0376L64.9189 30.2933Z" fill="#C96E00"/>
<path d="M75.6399 38.2435L82.4238 43.3684L85.0408 41.5174L76.2322 34.9878L75.6399 38.2435Z" fill="#C96E00"/>
<path d="M81.2521 23.1381L88.036 28.2631L90.6338 26.5176L81.8252 19.988L81.2521 23.1381Z" fill="#C96E00"/>
<path d="M91.9587 31.0676L98.7571 36.2133L101.34 34.4471L92.5286 27.9351L91.9587 31.0676Z" fill="#C96E00"/>
<path d="M71.0081 12.5659L70.5343 15.1704L77.3359 20.2985L79.916 18.5499L72.6023 13.1286C72.1848 12.8163 71.6181 12.6223 71.029 12.5515L71.0081 12.5659Z" fill="#C96E00"/>
<path d="M110.645 41.3578L103.25 35.8853L102.676 39.0354L108.9 43.7311L110.248 43.14C111.159 42.7422 111.318 41.9711 110.645 41.3578Z" fill="#C96E00"/>
<path d="M53.6945 60.5042L59.7399 65.0766L63.089 63.6133L63.1307 63.5845L54.3188 57.0725L53.6945 60.5042Z" fill="#C96E00"/>
<path d="M70.0341 53.3136L76.1613 57.9373L79.4302 56.5139L70.636 50.0051L70.0341 53.3136Z" fill="#C96E00"/>
<path d="M86.3432 46.1905L92.5026 50.8382L95.7121 49.4404L86.9355 42.9348L86.3432 46.1905Z" fill="#C96E00"/>
<path d="M53.8414 18.3878L96.6819 50.126L98.9382 49.1548L56.0977 17.4165L53.8414 18.3878Z" fill="#F1AC2A" stroke="black" stroke-width="0.5" stroke-miterlimit="10"/>
<path d="M37.5418 25.4581L80.3823 57.1964L82.6386 56.2251L39.7981 24.4868L37.5418 25.4581Z" fill="#F1AC2A" stroke="black" stroke-width="0.5" stroke-miterlimit="10"/>
<path d="M21.2601 32.5316L64.1006 64.2698L66.3392 63.2954L23.5164 31.5603L21.2601 32.5316Z" fill="#F1AC2A" stroke="black" stroke-width="0.5" stroke-miterlimit="10"/>
<path d="M14.9588 46.7117L16.9033 48.1563L83.6722 19.1607L81.7454 17.7193L14.9588 46.7117Z" fill="#F1AC2A" stroke="black" stroke-width="0.5" stroke-miterlimit="10"/>
<path d="M25.6654 54.6411L27.6098 56.0858L94.3964 27.0933L92.4519 25.6487L25.6654 54.6411Z" fill="#F1AC2A" stroke="black" stroke-width="0.5" stroke-miterlimit="10"/>
<path d="M36.3687 62.5879L38.3164 64.0149L105.103 35.0225L103.158 33.5779L36.3687 62.5879Z" fill="#F1AC2A" stroke="black" stroke-width="0.5" stroke-miterlimit="10"/>
</g>
<defs>
<clipPath id="clip0_2046_10378">
<rect width="107.307" height="72.2464" fill="white" transform="translate(12.9316) rotate(10.3113)"/>
</clipPath>
</defs>
</svg>
