<svg viewBox="0 0 220 220" fill="none" xmlns="http://www.w3.org/2000/svg">
<g clip-path="url(#clip0_2044_9932)">
<path d="M201.559 75.1175L202.245 72.6484L202.29 72.6103C202.354 72.5551 202.449 72.4747 202.568 72.3741C202.807 72.173 203.143 71.8912 203.535 71.569C204.319 70.9241 205.322 70.1196 206.204 69.4752C206.963 68.9237 207.497 68.2814 207.879 67.8224C207.959 67.7264 208.032 67.6384 208.1 67.5609C208.199 67.4469 208.279 67.3611 208.348 67.3019C208.399 67.2578 208.432 67.239 208.449 67.2314C208.473 67.2549 208.515 67.3126 208.569 67.4367C208.792 67.9564 208.952 68.9659 208.932 70.0596C208.912 71.1529 208.712 72.2712 208.262 73.0223C208.168 73.1784 207.999 73.3399 207.751 73.5012C207.505 73.6611 207.196 73.8115 206.842 73.9514C206.135 74.2314 205.273 74.4598 204.433 74.6399C203.593 74.8197 202.783 74.9498 202.181 75.035C201.934 75.07 201.722 75.0974 201.559 75.1175Z" fill="white" stroke="black" stroke-width="0.5" stroke-linecap="round" stroke-linejoin="round"/>
<path d="M109.385 91.1483C109.396 91.398 109.396 91.398 109.396 91.398L109.397 91.398L109.4 91.3979L109.41 91.3974L109.451 91.3955L109.611 91.388L110.222 91.3596C110.75 91.3349 111.509 91.2993 112.432 91.2557C114.277 91.1684 116.777 91.049 119.396 90.9205C124.631 90.6634 130.349 90.3694 132.258 90.2221C135.314 89.9921 136.703 89.5657 139.643 88.664C140.399 88.432 141.258 88.1685 142.274 87.8689L142.274 87.8688C144.775 87.1301 152.773 84.0442 160.532 80.9664C168.295 77.8872 175.848 74.8043 177.465 74.0664M109.385 91.1483L137.433 211.915M109.385 91.1483L109.396 91.398M109.385 91.1483L109.396 91.398M177.465 74.0664C177.465 74.0665 177.465 74.0665 177.465 74.0666L177.362 73.8389L177.465 74.0664ZM177.465 74.0664C179.046 73.3488 182.755 72.3265 186.85 71.6306C190.946 70.9344 195.377 70.5742 198.408 71.153C201.388 71.7226 203.282 73.6195 204.657 75.9109C205.638 77.5455 206.341 79.351 206.985 81.0066C207.25 81.6887 207.506 82.3453 207.767 82.9541L207.767 82.955C207.857 83.1618 207.936 83.5707 208.016 84.1457C208.064 84.484 208.11 84.8632 208.159 85.2721C208.193 85.548 208.228 85.8374 208.266 86.1368C208.453 87.606 208.714 89.2906 209.218 90.5394L209.45 90.4459M209.45 90.4459L209.218 90.5395C210.794 94.4395 212.756 98.3454 214.35 101.358C215.096 102.767 215.762 103.982 216.27 104.91L216.373 105.097C216.633 105.572 216.846 105.961 217 106.253C217.161 106.555 217.245 106.728 217.265 106.787L217.265 106.788C217.316 106.94 217.425 107.209 217.565 107.555C217.636 107.729 217.714 107.923 217.797 108.131C218.049 108.761 218.349 109.543 218.622 110.379C218.895 111.216 219.138 112.101 219.278 112.937C219.418 113.776 219.449 114.547 219.312 115.162C219.037 116.403 217.918 117.754 216.714 118.851C216.118 119.394 215.513 119.864 215.005 120.215C214.487 120.572 214.092 120.79 213.91 120.849C213.483 120.988 212.497 121.269 211.341 121.13C210.195 120.991 208.867 120.438 207.741 118.883C206.653 117.381 205.884 116.008 205.248 114.874C205.205 114.798 205.163 114.723 205.122 114.65C204.793 114.064 204.495 113.542 204.204 113.11C203.914 112.68 203.62 112.323 203.294 112.078C202.982 111.844 202.194 111.394 201.166 110.834C200.129 110.268 198.827 109.58 197.473 108.865L197.102 108.669C194.496 107.294 191.772 105.855 190.382 105.018L190.381 105.018C188.983 104.179 187.764 102.33 186.886 100.645C186.45 99.8099 186.105 99.0283 185.869 98.4555C185.751 98.1692 185.66 97.9354 185.599 97.7735C185.582 97.7298 185.568 97.6914 185.556 97.6586C185.546 97.6306 185.537 97.6068 185.53 97.5872L185.512 97.5391L185.508 97.5272L185.507 97.5243L185.507 97.5237L185.507 97.5236C185.482 97.4539 185.429 97.3986 185.36 97.3724C185.291 97.3462 185.214 97.3519 185.149 97.3878L185.271 97.6061M209.45 90.4459C211.756 96.1525 214.894 101.879 216.489 104.789C217.068 105.844 217.443 106.529 217.502 106.709C217.55 106.854 217.654 107.109 217.791 107.447C218.488 109.165 220.047 113.007 219.556 115.217C218.969 117.861 214.868 120.8 213.988 121.087C213.107 121.373 209.879 122.262 207.539 119.03C206.442 117.515 205.666 116.132 205.03 114.998C204.309 113.711 203.768 112.746 203.144 112.278C202.53 111.817 199.833 110.393 196.98 108.887C194.379 107.514 191.649 106.073 190.253 105.232C187.677 103.688 185.778 98.9595 185.358 97.8438L185.363 97.841L185.385 97.8286L185.391 97.8255L185.392 97.8247L185.393 97.8245L185.271 97.6061M209.45 90.4459C208.861 88.9873 208.608 86.8958 208.408 85.2461C208.275 84.1477 208.165 83.2452 207.997 82.8556L153.333 221.717M185.271 97.6061L185.149 97.3878L185.149 97.3881L185.147 97.3889L185.141 97.3921L185.119 97.4046L185.034 97.4523C184.96 97.4937 184.853 97.5535 184.723 97.6271C184.462 97.7743 184.104 97.9766 183.719 98.1974C182.953 98.6372 182.066 99.1558 181.618 99.4553C181.564 99.4908 181.508 99.5462 181.457 99.6007C181.401 99.6598 181.335 99.7352 181.261 99.8242C181.113 100.003 180.923 100.244 180.7 100.538C180.253 101.127 179.665 101.934 178.984 102.883C177.623 104.783 175.892 107.26 174.188 109.718C172.485 112.176 170.809 114.616 169.559 116.441C168.934 117.353 168.416 118.112 168.053 118.643L167.633 119.259L167.523 119.421L167.494 119.463L167.487 119.473L167.485 119.476L167.485 119.476C167.485 119.477 167.485 119.477 167.692 119.617M185.271 97.6061C185.035 97.6887 185.035 97.6888 185.035 97.6889L185.035 97.6891L185.035 97.6901L185.037 97.6936L185.041 97.7069L185.05 97.7301C184.397 98.0964 182.482 99.179 181.756 99.6632C180.876 100.251 167.692 119.617 167.692 119.617M167.692 119.617L167.485 119.477C167.471 119.497 167.46 119.52 167.453 119.544L166.279 123.357L166.279 123.357C165.704 125.237 164.469 127.785 163.045 130.198C161.62 132.613 160.02 134.865 158.725 136.162C157.386 137.503 155.594 140.04 154.043 142.623C152.494 145.203 151.157 147.871 150.75 149.48C150.481 150.545 149.786 153.019 148.985 155.871C148.608 157.214 148.207 158.641 147.816 160.044C147.206 162.232 146.621 164.36 146.188 166.015C145.971 166.842 145.793 167.553 145.668 168.094C145.605 168.364 145.556 168.595 145.522 168.777C145.489 168.953 145.467 169.103 145.467 169.202C145.467 169.48 145.304 171.6 145.066 174.703L145.064 174.723C144.826 177.826 144.514 181.889 144.221 186.016C143.927 190.142 143.652 194.335 143.487 197.698C143.404 199.38 143.349 200.856 143.333 202.014C143.317 203.162 143.339 204.021 143.417 204.453C143.707 206.044 143.78 207.859 143.78 209.284C143.78 209.994 143.762 210.605 143.743 211.038C143.734 211.254 143.725 211.426 143.718 211.543C143.715 211.602 143.712 211.647 143.71 211.677L143.708 211.711L143.707 211.72L143.707 211.722L143.707 211.722L143.956 211.74M167.692 119.617L166.518 123.43C165.351 127.243 161.536 133.701 158.902 136.339C156.268 138.977 151.787 146.402 150.993 149.541C150.722 150.609 150.026 153.089 149.224 155.944C147.669 161.483 145.717 168.431 145.717 169.202C145.717 169.49 145.556 171.586 145.322 174.629C144.61 183.906 143.221 201.979 143.663 204.408C144.25 207.633 143.956 211.74 143.956 211.74M143.956 211.74L143.707 211.723C143.701 211.812 143.743 211.898 143.818 211.948L143.956 211.74ZM143.956 211.74L143.818 211.948L143.818 211.949L143.82 211.95L143.825 211.953L143.847 211.968L143.933 212.026C144.008 212.076 144.116 212.149 144.251 212.24C144.52 212.423 144.894 212.678 145.314 212.97C146.156 213.556 147.175 214.285 147.902 214.867C148.617 215.44 149.997 216.821 151.162 218.243C151.744 218.953 152.266 219.666 152.622 220.286C152.801 220.597 152.934 220.878 153.013 221.119C153.095 221.365 153.112 221.546 153.088 221.668M143.956 211.74C143.956 211.74 146.591 213.496 148.058 214.672C149.525 215.847 153.627 220.248 153.333 221.717M153.088 221.668C153.032 221.947 152.796 222.266 152.384 222.598C151.98 222.924 151.441 223.234 150.849 223.504C149.657 224.046 148.302 224.399 147.471 224.399C146.602 224.399 145.371 224.324 144.217 224.107C143.64 223.998 143.088 223.854 142.612 223.669C142.135 223.483 141.75 223.261 141.492 223.003C141.376 222.887 141.245 222.683 141.105 222.395C140.967 222.111 140.829 221.761 140.694 221.368C140.423 220.582 140.169 219.637 139.951 218.723C139.732 217.811 139.549 216.934 139.422 216.284C139.358 215.96 139.308 215.693 139.273 215.507C139.256 215.414 139.243 215.341 139.234 215.292L139.224 215.236L139.222 215.221L139.221 215.218L139.221 215.217L139.221 215.217L138.975 215.26M153.088 221.668L153.333 221.717M153.088 221.668C153.088 221.668 153.088 221.668 153.088 221.668L153.333 221.717M138.975 215.26L139.221 215.217C139.216 215.19 139.207 215.164 139.194 215.14L137.433 211.915M138.975 215.26C138.975 215.26 140.149 222.011 141.315 223.18C142.482 224.348 145.71 224.649 147.471 224.649C149.232 224.649 153.04 223.18 153.333 221.717M138.975 215.26L137.214 212.034L137.433 211.915M137.433 211.915L153.333 221.717M133.692 149.24C133.942 149.23 133.942 149.23 133.942 149.231L133.942 149.232L133.942 149.235L133.943 149.251L133.945 149.314L133.955 149.557C133.964 149.771 133.977 150.085 133.994 150.487C134.028 151.289 134.077 152.441 134.139 153.837C134.263 156.629 134.437 160.397 134.639 164.302C134.841 168.208 135.07 172.25 135.304 175.59C135.538 178.938 135.775 181.561 135.992 182.642C136.877 187.065 137.464 196.473 137.464 200.294C137.464 201.265 137.352 202.287 137.214 203.316C137.169 203.65 137.122 203.985 137.074 204.319C136.975 205.018 136.876 205.716 136.802 206.408C136.583 208.457 136.592 210.37 137.433 211.914L133.692 149.24ZM133.692 149.24L133.632 148.998L133.631 148.998L133.629 148.998L133.62 149.001L133.586 149.009C133.555 149.017 133.508 149.028 133.446 149.042C133.323 149.072 133.14 149.114 132.9 149.167C132.42 149.273 131.715 149.421 130.816 149.591C129.017 149.929 126.441 150.349 123.336 150.679C117.122 151.338 108.795 151.63 100.33 150.169C91.8619 148.709 84.3412 145.64 78.4921 142.821C75.9987 141.619 73.8113 140.464 71.9822 139.498C71.6658 139.331 71.3601 139.17 71.0654 139.015C70.0675 138.49 69.1933 138.037 68.4576 137.688C67.7254 137.34 67.1153 137.088 66.6493 136.971C64.8349 136.517 62.3728 136.671 60.1878 137.227C59.0924 137.506 58.056 137.889 57.1961 138.354C56.3404 138.818 55.6386 139.374 55.2392 140.012C54.8607 140.617 54.1738 142.124 53.2675 144.14C53.1605 144.377 53.0503 144.623 52.937 144.875C52.0855 146.771 51.0604 149.054 49.9141 151.48C47.314 156.982 44.1015 163.194 40.8961 167.277L40.896 167.277C37.6839 171.373 34.8363 174.297 32.718 176.345C32.0773 176.965 31.5105 177.497 31.0167 177.961C30.6879 178.27 30.3916 178.548 30.1274 178.802C29.8014 179.114 29.5285 179.385 29.3177 179.616C29.1106 179.843 28.9485 180.048 28.8587 180.228C28.8586 180.228 28.8585 180.228 28.8584 180.228L29.082 180.34M133.692 149.24L27.3822 210.943M133.692 149.24L133.942 149.23C133.939 149.155 133.902 149.085 133.842 149.04C133.782 148.995 133.705 148.98 133.632 148.998L133.692 149.24ZM29.082 180.34C28.4951 181.508 27.0278 209.382 27.6147 210.852M29.082 180.34C29.2872 179.929 30.0292 179.232 31.1828 178.148C33.3298 176.131 36.9023 172.774 41.0927 167.431M29.082 180.34L41.0927 167.431M27.6147 210.852L27.3822 210.943M27.6147 210.852L27.3825 210.944C27.3824 210.944 27.3823 210.944 27.3822 210.943M27.6147 210.852C27.8828 211.531 28.8429 212.022 30.0581 212.643C31.4706 213.366 33.2277 214.264 34.6436 215.84M27.3822 210.943C27.5576 211.388 27.9635 211.736 28.4524 212.049C28.8717 212.318 29.3889 212.582 29.9462 212.867C30.0445 212.917 30.144 212.968 30.2445 213.02C31.598 213.716 33.1738 214.578 34.4576 216.007L34.6436 215.84M34.6436 215.84L34.4577 216.007C35.7557 217.451 36.3846 218.8 36.5232 219.908C36.6611 221.011 36.3156 221.872 35.6612 222.397L35.6607 222.397C35.5196 222.511 35.2545 222.628 34.8636 222.737C34.4802 222.844 34.0024 222.935 33.4593 223.01C32.3737 223.16 31.0473 223.242 29.7353 223.26C28.4233 223.278 27.1329 223.233 26.1198 223.128C25.6125 223.076 25.1807 223.01 24.8527 222.931C24.6886 222.892 24.5558 222.851 24.4548 222.809C24.3496 222.766 24.2978 222.73 24.2779 222.71C24.1945 222.626 24.0896 222.472 23.9689 222.249C23.8505 222.03 23.725 221.759 23.5966 221.454C23.3398 220.843 23.0769 220.107 22.8397 219.394C22.6028 218.682 22.393 217.997 22.2422 217.49C22.1669 217.236 22.1064 217.027 22.0648 216.882C22.044 216.809 22.0279 216.752 22.017 216.713L22.0047 216.67L22.0016 216.658L22.0008 216.656L22.0006 216.655L22.0006 216.655L21.7597 216.722M34.6436 215.84L21.7597 216.722M21.7597 216.722L22.0006 216.655M21.7597 216.722L22.0006 216.655M41.0927 167.431C45.7402 161.512 50.384 151.171 53.165 144.978C54.2431 142.577 55.0412 140.8 55.4511 140.145C56.9185 137.801 63.067 136.332 66.5886 137.213C67.5987 137.466 69.4033 138.419 71.8647 139.719C77.9843 142.95 88.1638 148.325 100.287 150.416C116.06 153.137 131.333 149.794 133.444 149.3L41.0927 167.431ZM22.0006 216.655C21.9783 216.575 21.9177 216.511 21.8388 216.485M22.0006 216.655L21.8388 216.485M21.8388 216.485L20.9584 216.191C20.6322 216.082 20.3033 215.737 20.0933 214.967C19.8844 214.201 19.8089 213.061 19.9544 211.462C20.102 209.84 20.5423 201.472 20.689 192.668C20.7625 188.265 20.7625 183.749 20.6155 179.91C20.469 176.082 20.1755 172.895 19.6511 171.172C18.6625 167.922 20.4165 164.568 22.6566 161.258C23.1495 160.529 23.6622 159.808 24.17 159.094C24.2355 159.001 24.301 158.909 24.3662 158.817C24.9368 158.014 25.4968 157.22 26.0058 156.441C27.0206 154.887 27.8492 153.37 28.1528 151.929C28.7561 149.067 28.0719 146.588 26.674 143.42C26.1704 142.278 25.5705 141.039 24.9014 139.658C24.6435 139.125 24.3753 138.571 24.0983 137.994C23.1015 135.914 21.9867 133.516 20.8172 130.661C18.4931 124.987 17.9807 118.061 18.4195 111.773C18.8584 105.483 20.2461 99.869 21.692 96.8246C23.1289 93.7994 26.4574 90.237 31.2306 87.2451C35.9985 84.2566 42.1893 81.8494 49.3281 81.1189C56.4665 80.3884 63.1729 81.5553 68.0989 82.9076C70.5609 83.5835 72.5757 84.305 73.9741 84.8572C74.6733 85.1333 75.2182 85.3669 75.5877 85.5313C75.7725 85.6135 75.9134 85.6783 76.0078 85.7225C76.055 85.7445 76.0905 85.7614 76.1141 85.7727L76.1406 85.7854L76.1467 85.7884L76.147 85.7885L76.1484 85.7893L76.1488 85.7894L76.161 85.7956C76.1832 85.8067 76.207 85.8144 76.2314 85.8186L109.343 91.3948C109.361 91.3978 109.378 91.3988 109.396 91.398M21.8388 216.485L109.396 91.398" fill="white" stroke="black" stroke-width="0.5" stroke-linecap="round" stroke-linejoin="round"/>
<path d="M208.66 111.327L191.277 70.9783H192.831L210.097 110.509L208.66 111.327Z" fill="#D6D6D6" stroke="black" stroke-width="0.5" stroke-linecap="round" stroke-linejoin="round"/>
<path d="M163.702 129.836L131.917 112.504L132.688 108.383L167.514 121.705C167.332 123.739 166.381 125.776 165.448 127.333C164.969 128.131 164.499 128.797 164.149 129.263C163.974 129.496 163.83 129.678 163.729 129.802C163.719 129.814 163.71 129.825 163.702 129.836Z" fill="#D6D6D6" stroke="black" stroke-width="0.5" stroke-linecap="round" stroke-linejoin="round"/>
<path d="M76.5684 85.8653C76.5683 85.8645 76.5681 85.8636 76.568 85.8628C76.675 85.8801 76.8095 85.9015 76.9753 85.9275C77.5305 86.0143 78.438 86.1513 79.8489 86.3525C82.6706 86.755 87.507 87.4146 95.5673 88.4432C103.637 89.4731 112.29 89.9877 118.923 90.245C122.241 90.3736 125.054 90.4379 127.038 90.4701C128.03 90.4862 128.815 90.4942 129.351 90.4983C129.62 90.5003 129.826 90.5013 129.966 90.5018L129.986 90.5018L129.99 90.5178C130.025 90.65 130.078 90.8454 130.146 91.0981C130.284 91.6034 130.485 92.3382 130.741 93.2563C131.253 95.0924 131.985 97.6617 132.866 100.595C133.293 102.015 133.351 104.067 133.187 106.371C133.024 108.668 132.641 111.188 132.203 113.531C131.765 115.873 131.272 118.032 130.888 119.606C130.696 120.393 130.531 121.034 130.415 121.478C130.357 121.699 130.311 121.872 130.279 121.989L130.253 122.085C130.214 122.113 130.157 122.154 130.079 122.204C129.911 122.311 129.65 122.466 129.281 122.645C128.544 123.003 127.379 123.462 125.683 123.85C122.289 124.625 116.768 125.115 108.295 123.942C99.8039 122.768 92.1903 121.448 86.6995 120.422C83.9542 119.908 81.7398 119.469 80.2119 119.157C79.448 119.002 78.8557 118.878 78.4545 118.794C78.2869 118.758 78.1526 118.73 78.0531 118.708C78.0558 118.664 78.0587 118.613 78.062 118.556C78.0758 118.317 78.0951 117.965 78.1173 117.515C78.1618 116.615 78.218 115.324 78.265 113.758C78.359 110.626 78.4164 106.392 78.2695 101.984C78.1224 97.5726 77.6812 93.457 77.2769 90.4448C77.0748 88.9385 76.8818 87.7075 76.7392 86.8528C76.668 86.4254 76.6093 86.092 76.5684 85.8653Z" fill="#31FFE6" stroke="black" stroke-width="0.5" stroke-linecap="round" stroke-linejoin="round"/>
<path d="M76.6085 85.8124C76.6411 85.9114 76.681 86.0318 76.7281 86.1718C76.8752 86.6091 77.092 87.2376 77.3705 88.0011C77.9276 89.5285 78.7311 91.5945 79.7167 93.7509C80.7028 95.9085 81.8684 98.1502 83.1488 100.032C84.4337 101.92 85.8146 103.416 87.2214 104.12C87.9243 104.471 89.0202 104.796 90.4234 105.09C91.8219 105.383 93.5082 105.642 95.3814 105.868C99.1273 106.321 103.607 106.641 107.999 106.842C112.391 107.044 116.69 107.126 120.074 107.103C121.766 107.092 123.227 107.054 124.355 106.992C125.494 106.929 126.265 106.842 126.598 106.742L76.6085 85.8124ZM76.6085 85.8124L86.5016 85.7433L86.5055 85.744L86.5822 85.7574L86.8816 85.81C87.1441 85.8562 87.5296 85.9243 88.0214 86.0118C89.005 86.1868 90.4138 86.4395 92.1145 86.75C95.5159 87.3711 100.084 88.2236 104.753 89.1492C109.422 90.0749 114.19 91.0733 117.99 91.9864C119.89 92.4429 121.545 92.8774 122.824 93.27C123.463 93.4664 124.005 93.6513 124.436 93.8223C124.871 93.9952 125.175 94.1475 125.349 94.2747L125.35 94.2749C126.101 94.8202 126.738 95.8134 127.221 97.0455C127.701 98.2717 128.017 99.7058 128.143 101.098C128.269 102.491 128.204 103.827 127.934 104.859C127.66 105.906 127.199 106.561 126.598 106.742L76.6085 85.8124Z" fill="#D6D6D6" stroke="black" stroke-width="0.5" stroke-linecap="round" stroke-linejoin="round"/>
<path d="M109.448 151.304L100.596 150.194C103.479 136.618 104.056 123.211 103.91 113.18C103.837 108.131 103.58 103.935 103.342 101.001C103.223 99.5342 103.108 98.3825 103.023 97.5971C102.981 97.2045 102.946 96.9033 102.921 96.7002C102.92 96.686 102.918 96.6722 102.916 96.659L108.015 96.3899C110.595 106.025 110.956 119.748 110.666 131.113C110.52 136.829 110.209 141.941 109.934 145.624C109.797 147.466 109.669 148.949 109.575 149.973C109.529 150.484 109.49 150.881 109.464 151.149C109.458 151.207 109.453 151.259 109.448 151.304Z" fill="#D6D6D6" stroke="black" stroke-width="0.5" stroke-linecap="round" stroke-linejoin="round"/>
<path d="M87.027 85.745C92.1525 85.8112 100.17 87.3137 107.015 88.8309C110.547 89.6137 113.759 90.3986 116.088 90.9878C117.253 91.2824 118.197 91.528 118.849 91.7C119.119 91.7711 119.339 91.8295 119.504 91.8737C119.48 91.9047 119.454 91.9379 119.425 91.9732C119.227 92.2229 118.932 92.5788 118.551 93.0009C117.789 93.8455 116.683 94.9527 115.306 96.0044C112.547 98.1121 108.737 99.971 104.445 99.1099L104.445 99.1099C100.122 98.2434 95.6963 94.8237 92.3302 91.5828C90.6524 89.9674 89.2478 88.4064 88.2627 87.2491C87.7702 86.6706 87.3828 86.1933 87.1188 85.861C87.0864 85.8201 87.0557 85.7814 87.027 85.745Z" fill="#D6D6D6" stroke="black" stroke-width="0.5" stroke-linecap="round" stroke-linejoin="round"/>
<mask id="path-9-inside-1_2044_9932" fill="white">
<path d="M98.8701 5.64079C98.8701 5.64079 98.6553 2.10008 100.373 1.56252C102.091 1.02496 110.337 -0.258006 112.377 0.70243C114.409 1.67003 115.591 7.67634 115.591 8.32141C115.591 8.96648 98.4478 6.60123 98.4478 6.60123L98.8772 5.63362L98.8701 5.64079Z"/>
</mask>
<path d="M98.8701 5.64079C98.8701 5.64079 98.6553 2.10008 100.373 1.56252C102.091 1.02496 110.337 -0.258006 112.377 0.70243C114.409 1.67003 115.591 7.67634 115.591 8.32141C115.591 8.96648 98.4478 6.60123 98.4478 6.60123L98.8772 5.63362L98.8701 5.64079Z" fill="#8000FF"/>
<path d="M98.8701 5.64079L98.371 5.67106C98.3829 5.86751 98.509 6.0387 98.693 6.1084C98.8771 6.17809 99.0849 6.13331 99.224 5.99401L98.8701 5.64079ZM112.377 0.70243L112.592 0.250962L112.59 0.25006L112.377 0.70243ZM98.4478 6.60123L97.9907 6.39838C97.927 6.54198 97.9345 6.70717 98.0109 6.84443C98.0873 6.9817 98.2238 7.07506 98.3794 7.09653L98.4478 6.60123ZM98.8772 5.63362L99.3342 5.83646C99.432 5.6162 99.3587 5.35755 99.16 5.22126C98.9613 5.08498 98.6936 5.10984 98.5233 5.2804L98.8772 5.63362ZM98.8701 5.64079C99.3692 5.61052 99.3692 5.61063 99.3692 5.61072C99.3692 5.61073 99.3692 5.61081 99.3692 5.61084C99.3692 5.61089 99.3692 5.6109 99.3692 5.61084C99.3692 5.61074 99.3691 5.61042 99.3691 5.6099C99.3691 5.60886 99.369 5.60698 99.3688 5.60431C99.3685 5.59895 99.3681 5.59038 99.3676 5.57879C99.3666 5.55561 99.3652 5.5204 99.364 5.47475C99.3617 5.38335 99.3601 5.25059 99.3633 5.08901C99.3697 4.76418 99.3953 4.3309 99.4704 3.88661C99.5463 3.43781 99.6683 3.00501 99.8529 2.66525C100.036 2.32841 100.257 2.12269 100.523 2.0397L100.224 1.08534C99.6301 1.27114 99.2341 1.70958 98.9743 2.18781C98.716 2.66313 98.5696 3.2163 98.4844 3.71987C98.3985 4.22795 98.3705 4.71345 98.3635 5.0693C98.3599 5.24806 98.3617 5.39611 98.3644 5.50045C98.3657 5.55266 98.3673 5.59405 98.3686 5.623C98.3692 5.63748 98.3698 5.64885 98.3702 5.65693C98.3704 5.66096 98.3706 5.66418 98.3707 5.66654C98.3708 5.66772 98.3708 5.66869 98.3709 5.66945C98.3709 5.66982 98.3709 5.67015 98.3709 5.67041C98.371 5.67055 98.371 5.67071 98.371 5.67078C98.371 5.67092 98.371 5.67106 98.8701 5.64079ZM100.523 2.0397C101.332 1.78631 103.783 1.33509 106.307 1.06795C107.562 0.935056 108.818 0.8498 109.879 0.856033C110.969 0.862436 111.764 0.9668 112.164 1.1548L112.59 0.25006C111.969 -0.0421577 110.968 -0.137586 109.885 -0.14395C108.773 -0.150483 107.477 -0.0614815 106.202 0.0735055C103.663 0.342128 101.132 0.801174 100.224 1.08534L100.523 2.0397ZM112.162 1.15389C112.525 1.32655 112.916 1.76731 113.3 2.45442C113.674 3.12363 114.001 3.95097 114.27 4.78636C114.539 5.61891 114.746 6.44359 114.885 7.09904C114.955 7.4266 115.007 7.70927 115.042 7.9271C115.079 8.15758 115.091 8.28546 115.091 8.32141H116.091C116.091 8.19609 116.065 7.99517 116.03 7.76993C115.992 7.53204 115.936 7.23207 115.863 6.89071C115.718 6.20831 115.503 5.34999 115.222 4.47938C114.942 3.61161 114.592 2.71563 114.173 1.96637C113.764 1.23499 113.245 0.562113 112.592 0.250966L112.162 1.15389ZM115.091 8.32141C115.091 8.17764 115.155 8.06855 115.216 8.00418C115.27 7.94796 115.322 7.9235 115.338 7.91646C115.369 7.90259 115.375 7.90648 115.327 7.91352C115.239 7.9261 115.086 7.93414 114.857 7.93271C114.408 7.92989 113.753 7.89172 112.953 7.82642C111.355 7.69618 109.22 7.46191 107.078 7.20673C104.938 6.95172 102.798 6.67651 101.192 6.465C100.389 6.35925 99.7196 6.26946 99.2514 6.20611C99.0173 6.17444 98.8333 6.14938 98.708 6.13224C98.6453 6.12367 98.5973 6.11708 98.565 6.11264C98.5488 6.11042 98.5366 6.10874 98.5284 6.10761C98.5243 6.10705 98.5212 6.10662 98.5191 6.10634C98.5181 6.1062 98.5173 6.10609 98.5168 6.10602C98.5166 6.10599 98.5164 6.10596 98.5163 6.10594C98.5161 6.10593 98.5161 6.10592 98.4478 6.60123C98.3794 7.09653 98.3795 7.09654 98.3796 7.09656C98.3798 7.09658 98.38 7.09661 98.3802 7.09665C98.3808 7.09672 98.3816 7.09683 98.3826 7.09697C98.3847 7.09726 98.3878 7.09769 98.392 7.09827C98.4003 7.09941 98.4126 7.1011 98.4289 7.10334C98.4614 7.10781 98.5097 7.11442 98.5725 7.12302C98.6983 7.14022 98.8827 7.16534 99.1173 7.19708C99.5866 7.26057 100.257 7.35052 101.061 7.45644C102.669 7.66825 104.814 7.94403 106.96 8.19971C109.104 8.4552 111.255 8.6913 112.871 8.82312C113.678 8.88885 114.363 8.92963 114.851 8.93269C115.091 8.9342 115.306 8.92691 115.469 8.90327C115.546 8.89219 115.649 8.87276 115.745 8.82999C115.804 8.80375 116.091 8.66511 116.091 8.32141H115.091ZM98.9048 6.80407L99.3342 5.83646L98.4202 5.43078L97.9907 6.39838L98.9048 6.80407ZM98.5233 5.2804L98.5162 5.28757L99.224 5.99401L99.2311 5.98684L98.5233 5.2804Z" fill="black" mask="url(#path-9-inside-1_2044_9932)"/>
<path d="M115.935 13.2263C108.587 12.0434 104.782 12.5435 102.802 13.375C101.806 13.7932 101.267 14.2974 100.977 14.7175C100.832 14.9266 100.752 15.1114 100.707 15.2488C100.703 15.2628 100.699 15.2764 100.695 15.2894C100.669 15.2932 100.641 15.2974 100.609 15.3019C100.446 15.3256 100.209 15.3581 99.9194 15.3931C99.3387 15.4632 98.5443 15.5431 97.6879 15.5831C96.8304 15.6231 95.9166 15.6227 95.0955 15.5339C94.2672 15.4443 93.5644 15.2677 93.1058 14.9767C92.2216 14.4155 91.9673 13.2669 92.217 11.8351C92.4642 10.4175 93.1956 8.81608 94.1411 7.49973C94.5946 6.87076 95.3777 6.23544 96.4036 5.66836C97.4262 5.10306 98.6751 4.61391 100.043 4.2696C102.782 3.58013 105.97 3.47824 108.749 4.47831C111.575 5.49531 113.171 6.26974 114.594 7.02957C114.92 7.20374 115.239 7.37777 115.561 7.55421C116.648 8.14839 117.785 8.76998 119.446 9.51675L115.935 13.2263ZM115.935 13.2263L115.936 13.2264L115.969 13.2289C115.998 13.2311 116.041 13.2342 116.096 13.2379C116.207 13.2454 116.369 13.2554 116.569 13.2654C116.97 13.2854 117.524 13.3054 118.142 13.3054C119.387 13.3054 120.852 13.2236 121.828 12.9139C122.322 12.757 122.643 12.5733 122.806 12.3849C122.884 12.295 122.922 12.2091 122.932 12.1254C122.943 12.0412 122.928 11.9387 122.868 11.8123C122.742 11.55 122.435 11.2185 121.866 10.8237C121.303 10.4331 120.508 9.99728 119.446 9.51696L115.935 13.2263Z" fill="#8000FF" stroke="black" stroke-width="0.5" stroke-linecap="round" stroke-linejoin="round"/>
<path d="M115.743 11.9929C112.248 9.90311 108.083 9.78094 104.764 10.1947C103.105 10.4016 101.666 10.7413 100.642 11.0293C100.13 11.1732 99.7228 11.3041 99.4438 11.3987C99.3266 11.4385 99.2321 11.4718 99.1621 11.4971L99.0188 13.0887C98.9467 13.8894 99.313 14.9475 99.7871 15.9382C100.199 16.7991 100.672 17.5683 100.945 18.0123C100.982 18.0731 101.016 18.1278 101.045 18.1757C101.205 18.4385 101.241 18.8189 101.234 19.1885C101.227 19.5714 101.17 19.9976 101.1 20.3907C101.029 20.7852 100.943 21.1535 100.875 21.4228C100.852 21.5162 100.83 21.5978 100.812 21.6648L107.679 25.0993L108.215 23.7603C108.242 23.6921 108.298 23.6393 108.368 23.6161C108.438 23.5928 108.514 23.6015 108.577 23.6397C108.577 23.6397 108.577 23.6397 108.577 23.6397L108.577 23.6399L108.579 23.6409L108.586 23.6452L108.615 23.6626C108.641 23.678 108.68 23.7006 108.73 23.729C108.83 23.786 108.975 23.8663 109.153 23.9589C109.509 24.1444 109.995 24.3775 110.518 24.5712C111.043 24.7658 111.591 24.9153 112.076 24.9432C112.564 24.9712 112.943 24.8743 113.188 24.6299C113.473 24.3436 113.727 23.9098 113.945 23.4004C114.162 22.8946 114.337 22.332 114.473 21.8034C114.61 21.2756 114.708 20.7863 114.771 20.4288C114.803 20.2502 114.826 20.1049 114.841 20.0045C114.848 19.9543 114.854 19.9154 114.858 19.8892L114.862 19.8597L114.863 19.8525L114.863 19.8508L114.863 19.8504C114.863 19.8504 114.863 19.8504 114.863 19.8504M115.743 11.9929L115.59 16.5496C115.708 16.8456 116.001 17.0969 116.291 17.3449C116.78 17.7636 117.257 18.1729 116.857 18.7715C116.22 19.7248 115.111 19.8825 115.111 19.8825L114.863 19.8504M115.743 11.9929C115.766 12.0266 115.798 12.0757 115.837 12.1376C115.916 12.2665 116.019 12.449 116.113 12.6635C116.304 13.1013 116.436 13.63 116.302 14.1019C116.182 14.5256 115.964 14.8433 115.748 15.1565C115.706 15.2183 115.664 15.28 115.622 15.3422C115.382 15.7037 115.15 16.1205 115.358 16.642M115.743 11.9929L115.358 16.642M114.863 19.8504C114.877 19.7391 114.964 19.6511 115.075 19.6351C115.075 19.6351 115.075 19.6351 115.075 19.6351L115.075 19.635L115.076 19.635C115.076 19.635 115.076 19.635 115.076 19.635L115.076 19.6349L115.082 19.6339C115.088 19.6329 115.098 19.6311 115.112 19.6285C115.139 19.6232 115.18 19.6145 115.231 19.601C115.335 19.5741 115.48 19.5288 115.644 19.456C115.973 19.3099 116.365 19.0581 116.65 18.6326C116.771 18.4504 116.772 18.3222 116.736 18.2139C116.692 18.0845 116.582 17.9466 116.409 17.7833C116.325 17.7039 116.233 17.6247 116.135 17.5408L116.126 17.5334C116.033 17.4531 115.934 17.3684 115.84 17.2811C115.651 17.1048 115.458 16.8948 115.358 16.642M114.863 19.8504L115.358 16.642" fill="white" stroke="black" stroke-width="0.5" stroke-linecap="round" stroke-linejoin="round"/>
<mask id="path-13-inside-2_2044_9932" fill="white">
<path d="M113.472 20.9362C113.472 20.9362 111.861 21.0795 111.417 19.3235L113.472 20.9362Z"/>
</mask>
<path d="M113.472 20.9362C113.472 20.9362 111.861 21.0795 111.417 19.3235L113.472 20.9362Z" fill="#8000FF"/>
<path d="M113.516 21.4342C113.791 21.4097 113.994 21.1669 113.97 20.8918C113.945 20.6168 113.702 20.4136 113.427 20.4381L113.516 21.4342ZM111.902 19.201C111.835 18.9333 111.563 18.7711 111.295 18.8387C111.027 18.9064 110.865 19.1783 110.933 19.446L111.902 19.201ZM113.472 20.9362C113.427 20.4381 113.428 20.4381 113.428 20.4381C113.428 20.4381 113.428 20.4381 113.428 20.438C113.429 20.438 113.429 20.438 113.429 20.438C113.43 20.4379 113.43 20.4379 113.431 20.4379C113.431 20.4378 113.432 20.4378 113.432 20.4378C113.432 20.4378 113.43 20.4379 113.427 20.438C113.422 20.4383 113.411 20.4388 113.396 20.4389C113.366 20.4393 113.318 20.4384 113.257 20.4331C113.135 20.4222 112.97 20.3936 112.797 20.3242C112.472 20.1939 112.081 19.9084 111.902 19.201L110.933 19.446C111.198 20.4946 111.834 21.0155 112.425 21.2524C112.71 21.3668 112.976 21.412 113.169 21.4292C113.266 21.4378 113.348 21.4395 113.407 21.4389C113.437 21.4385 113.461 21.4376 113.48 21.4367C113.489 21.4362 113.496 21.4357 113.503 21.4353C113.506 21.435 113.508 21.4348 113.511 21.4347C113.512 21.4346 113.513 21.4345 113.514 21.4344C113.514 21.4344 113.515 21.4343 113.515 21.4343C113.515 21.4343 113.515 21.4342 113.516 21.4342C113.516 21.4342 113.516 21.4342 113.472 20.9362Z" fill="black" mask="url(#path-13-inside-2_2044_9932)"/>
<path d="M107.954 11.7277L107.953 11.7277C107.882 11.7336 107.817 11.7696 107.775 11.8265C107.732 11.8834 107.715 11.9559 107.729 12.0258M107.954 11.7277L107.974 11.9768C107.729 12.0258 107.729 12.0257 107.729 12.0256L107.729 12.0258M107.954 11.7277L107.954 11.7276L107.956 11.7275L107.965 11.7266C107.974 11.7258 107.987 11.7245 108.004 11.7226C108.039 11.7189 108.089 11.7129 108.153 11.704C108.28 11.6863 108.457 11.6572 108.656 11.612C109.062 11.5201 109.53 11.3678 109.861 11.1291C110.172 10.9042 110.276 10.6442 110.308 10.4453C110.324 10.3431 110.322 10.2544 110.316 10.1923C110.315 10.1866 110.315 10.1812 110.314 10.1761C107.471 9.79701 104.672 10.1304 102.566 10.5659C101.497 10.7871 100.609 11.0341 99.9897 11.2254C99.68 11.3211 99.4375 11.4028 99.2729 11.4604C99.2338 11.4741 99.1991 11.4865 99.1689 11.4973L99.0256 13.0887C98.9535 13.8891 99.3214 14.9452 99.7965 15.9353C100.187 16.7482 100.629 17.4782 100.906 17.9345C100.935 17.982 100.962 18.0266 100.987 18.0681C101.895 18.1373 102.341 17.8876 102.565 17.5953C102.813 17.2726 102.852 16.8217 102.808 16.4267L107.954 11.7277ZM107.729 12.0258L107.73 12.0306C107.731 12.0359 107.732 12.0447 107.734 12.0565C107.737 12.0803 107.741 12.1156 107.743 12.1587C107.747 12.2466 107.744 12.3591 107.718 12.47C107.691 12.5805 107.645 12.6785 107.571 12.7526C107.5 12.8238 107.387 12.8896 107.195 12.911C107.062 12.9258 106.879 12.8472 106.609 12.6413C106.484 12.5465 106.355 12.4364 106.215 12.3175L106.204 12.3077C106.062 12.1869 105.911 12.0581 105.754 11.9389C105.444 11.7038 105.083 11.4822 104.679 11.4299C104.258 11.3751 103.831 11.5095 103.41 11.9008M107.729 12.0258L103.41 11.9008M103.41 11.9008C102.583 12.6651 102.422 13.6221 102.47 14.4656C102.494 14.8859 102.57 15.2841 102.644 15.6228C102.664 15.717 102.684 15.8047 102.702 15.8864C102.753 16.1093 102.793 16.287 102.808 16.4267L103.41 11.9008Z" fill="#8000FF" stroke="black" stroke-width="0.5" stroke-linecap="round" stroke-linejoin="round"/>
<mask id="path-16-inside-3_2044_9932" fill="white">
<path d="M105.727 13.0447C105.727 13.0447 105.126 10.2064 103.379 10.9948C101.633 11.7904 102.427 15.7611 103.064 16.3919C103.701 17.0298 105.126 16.2342 105.126 16.2342"/>
</mask>
<path d="M105.727 13.0447C105.727 13.0447 105.126 10.2064 103.379 10.9948C101.633 11.7904 102.427 15.7611 103.064 16.3919C103.701 17.0298 105.126 16.2342 105.126 16.2342" fill="white"/>
<path d="M105.238 13.1483C105.295 13.4185 105.561 13.5911 105.831 13.5338C106.101 13.4766 106.273 13.2112 106.216 12.9411L105.238 13.1483ZM103.379 10.9948L103.174 10.5391L103.172 10.5398L103.379 10.9948ZM103.064 16.3919L103.418 16.0386L103.416 16.0366L103.064 16.3919ZM105.37 16.6707C105.611 16.5361 105.697 16.2315 105.562 15.9904C105.428 15.7493 105.123 15.663 104.882 15.7977L105.37 16.6707ZM105.727 13.0447C106.216 12.9411 106.216 12.9409 106.216 12.9407C106.216 12.9407 106.216 12.9405 106.216 12.9403C106.216 12.94 106.216 12.9397 106.216 12.9393C106.216 12.9386 106.216 12.9376 106.215 12.9365C106.215 12.9343 106.214 12.9314 106.213 12.9279C106.212 12.9208 106.21 12.911 106.207 12.8988C106.201 12.8745 106.193 12.8404 106.182 12.798C106.16 12.7135 106.126 12.5954 106.081 12.457C105.991 12.1834 105.847 11.815 105.636 11.4658C105.429 11.1227 105.131 10.7533 104.712 10.5378C104.265 10.3084 103.74 10.2835 103.174 10.5391L103.585 11.4505C103.892 11.3119 104.097 11.3462 104.254 11.4272C104.439 11.5221 104.618 11.7145 104.78 11.9824C104.938 12.2442 105.054 12.5361 105.131 12.7701C105.169 12.8854 105.196 12.9829 105.214 13.0505C105.223 13.0843 105.229 13.1103 105.233 13.1272C105.235 13.1356 105.236 13.1417 105.237 13.1453C105.238 13.1471 105.238 13.1483 105.238 13.1488C105.238 13.149 105.238 13.1491 105.238 13.149C105.238 13.149 105.238 13.1489 105.238 13.1488C105.238 13.1487 105.238 13.1486 105.238 13.1486C105.238 13.1485 105.238 13.1483 105.727 13.0447ZM103.172 10.5398C102.565 10.8161 102.216 11.355 102.028 11.93C101.842 12.5026 101.797 13.16 101.829 13.7807C101.861 14.4055 101.972 15.0238 102.119 15.5332C102.193 15.7879 102.277 16.0231 102.37 16.2223C102.458 16.4122 102.57 16.6063 102.713 16.7472L103.416 16.0366C103.399 16.0198 103.347 15.9518 103.277 15.8007C103.211 15.659 103.143 15.4742 103.08 15.2556C102.953 14.8181 102.855 14.2758 102.827 13.7296C102.799 13.1793 102.844 12.6554 102.979 12.2401C103.114 11.8271 103.32 11.5713 103.587 11.4498L103.172 10.5398ZM102.711 16.7452C102.98 17.0148 103.317 17.1146 103.621 17.1352C103.921 17.1555 104.219 17.1021 104.466 17.0345C104.717 16.966 104.94 16.8759 105.099 16.8044C105.179 16.7684 105.244 16.7362 105.291 16.7125C105.314 16.7007 105.332 16.6909 105.346 16.6837C105.352 16.6802 105.358 16.6772 105.362 16.6751C105.364 16.674 105.365 16.673 105.367 16.6723C105.367 16.672 105.368 16.6716 105.368 16.6714C105.369 16.6712 105.369 16.6711 105.369 16.671C105.369 16.671 105.369 16.6709 105.369 16.6709C105.37 16.6708 105.37 16.6707 105.126 16.2342C104.882 15.7977 104.882 15.7976 104.882 15.7976C104.882 15.7975 104.882 15.7975 104.882 15.7975C104.883 15.7974 104.883 15.7973 104.883 15.7973C104.883 15.7972 104.883 15.7972 104.883 15.7972C104.883 15.7973 104.882 15.7975 104.882 15.7979C104.88 15.7986 104.878 15.8001 104.874 15.8022C104.866 15.8064 104.853 15.8131 104.836 15.8218C104.802 15.8391 104.751 15.8641 104.688 15.8926C104.56 15.9504 104.387 16.0193 104.202 16.07C104.013 16.1216 103.835 16.1474 103.689 16.1375C103.547 16.1279 103.468 16.0879 103.418 16.0386L102.711 16.7452Z" fill="black" mask="url(#path-16-inside-3_2044_9932)"/>
<path d="M114.402 15.5676C114.402 16.1338 114.209 16.5854 113.973 16.5854C113.737 16.5854 113.543 16.1266 113.543 15.5676C113.543 15.0085 113.737 14.5498 113.973 14.5498C114.209 14.5498 114.402 15.0085 114.402 15.5676Z" fill="#8000FF"/>
<path d="M115.451 13.1928L113.693 13.0711C113.831 13.0149 113.98 12.9632 114.132 12.9241C114.451 12.8427 114.762 12.8226 115.026 12.908C115.177 12.9571 115.323 13.0443 115.451 13.1928Z" stroke="black" stroke-width="0.5" stroke-linecap="round" stroke-linejoin="round"/>
<path d="M109.255 25.9233L109.14 27.9865L98.3055 23.9182L99.5266 20.9872L109.255 25.9233Z" fill="white" stroke="black" stroke-width="0.5" stroke-linecap="round" stroke-linejoin="round"/>
<path d="M128.782 140.136L138.866 136.596C138.88 136.615 138.895 136.635 138.912 136.657C139.017 136.793 139.17 136.986 139.365 137.22C139.757 137.687 140.32 138.316 141.007 138.963C142.374 140.249 144.268 141.642 146.305 141.933C146.723 141.993 147.503 141.956 148.398 141.902C148.582 141.89 148.773 141.878 148.968 141.866C149.735 141.817 150.57 141.764 151.376 141.741C152.389 141.712 153.333 141.731 154.018 141.86C154.363 141.925 154.618 142.013 154.782 142.12C154.936 142.221 154.987 142.322 154.987 142.431C154.987 143.187 154.451 143.94 153.721 144.62C153.076 145.221 152.33 145.721 151.806 146.071C151.745 146.112 151.687 146.151 151.633 146.188C147.349 149.066 142.386 148.862 140.02 148.765C139.679 148.751 139.392 148.739 139.168 148.739H137.436C137.303 148.739 137.194 148.843 137.186 148.975L137.047 151.408L131.871 152.312C131.856 152.288 131.84 152.261 131.822 152.231C131.735 152.084 131.611 151.871 131.461 151.606C131.162 151.076 130.763 150.338 130.364 149.509C129.965 148.679 129.568 147.761 129.271 146.869C128.973 145.974 128.782 145.121 128.782 144.417V140.136Z" fill="#CCA58F" stroke="black" stroke-width="0.5" stroke-linecap="round" stroke-linejoin="round"/>
<path d="M141.019 133.91L141.327 117.489L143.346 133.788L141.019 133.91Z" fill="white" stroke="black" stroke-width="0.5" stroke-linecap="round" stroke-linejoin="round"/>
<path d="M115.191 69.0625L117.918 74.1645C117.937 74.2011 117.966 74.2323 118.001 74.2552L118.138 74.0466C118.001 74.2552 118.001 74.2553 118.001 74.2554L118.001 74.2558L118.004 74.2574L118.014 74.264L118.053 74.29L118.207 74.3919C118.342 74.4814 118.541 74.6132 118.796 74.7825C119.305 75.1211 120.038 75.6095 120.933 76.2086C122.722 77.4068 125.156 79.0476 127.738 80.8182C132.908 84.3639 138.648 88.4165 140.992 90.4828C145.604 94.547 144.68 99.528 144.498 100.446L144.498 100.446C144.404 100.926 143.255 108.448 142.133 115.835C141.571 119.531 141.015 123.198 140.599 125.941L140.098 129.251L139.958 130.176L139.921 130.419L139.912 130.482L139.909 130.498L139.909 130.502L139.908 130.503C139.908 130.503 139.908 130.503 140.156 130.54L139.908 130.503C139.905 130.524 139.905 130.544 139.907 130.565L140.396 135.471C140.39 135.489 140.383 135.514 140.372 135.545C140.346 135.623 140.303 135.74 140.238 135.887C140.109 136.182 139.893 136.6 139.549 137.079C138.861 138.036 137.657 139.246 135.597 140.22C133.554 141.181 131.259 141.247 129.458 141.064C128.559 140.973 127.791 140.821 127.247 140.692C126.975 140.628 126.76 140.569 126.613 140.527C126.592 140.521 126.572 140.515 126.553 140.509C126.553 140.503 126.553 140.497 126.552 140.491C126.547 140.367 126.539 140.189 126.531 139.972C126.515 139.537 126.5 138.944 126.5 138.313C126.5 137.682 126.515 137.017 126.562 136.435C126.609 135.843 126.685 135.369 126.795 135.1L126.795 135.098C127.047 134.466 127.42 133.28 127.728 132.262C127.883 131.751 128.022 131.279 128.123 130.934C128.148 130.846 128.171 130.767 128.192 130.697C128.211 130.63 128.228 130.572 128.241 130.524L128.274 130.412L128.282 130.383L128.284 130.375L128.285 130.373L128.285 130.373L128.285 130.372L128.045 130.304L128.285 130.372C128.289 130.357 128.292 130.341 128.294 130.325L130.763 101.856C130.772 101.756 130.72 101.661 130.631 101.614L107.64 89.4864L107.64 89.4861L107.629 89.4808L107.523 89.7075L107.629 89.4808L107.629 89.4806L107.628 89.4802L107.624 89.4785L107.609 89.4715L107.55 89.4442L107.324 89.3384C107.126 89.2461 106.84 89.1118 106.483 88.9436C105.769 88.6073 104.773 88.1357 103.646 87.5944C101.391 86.5115 98.6136 85.1514 96.5175 84.0394C94.5041 82.9712 93.4815 80.9454 92.9642 79.1479C92.7066 78.2528 92.5775 77.4248 92.513 76.8204C92.4807 76.5185 92.4647 76.2731 92.4567 76.104C92.4554 76.0771 92.4543 76.0521 92.4534 76.0291L115.191 69.0625Z" fill="#8000FF" stroke="black" stroke-width="0.5" stroke-linecap="round" stroke-linejoin="round"/>
<path d="M115.913 72.9589L115.927 73.0828L115.797 73.1196L114.882 73.3799C114.106 73.6009 113.025 73.9089 111.806 74.257C109.368 74.9531 106.377 75.8097 104.168 76.4514C101.991 77.0839 98.8124 77.3682 96.1604 77.4927C94.838 77.5548 93.653 77.5769 92.7985 77.5835C92.3714 77.5868 92.027 77.5862 91.7896 77.5848C91.7356 77.5844 91.6871 77.5841 91.6444 77.5837L90.6732 68.1171L90.6729 68.1089L90.6714 68.0574L90.6658 67.8557C90.6609 67.6786 90.6538 67.4178 90.6452 67.0831C90.6281 66.4138 90.6049 65.4493 90.5805 64.2686C90.5319 61.9073 90.4789 58.6817 90.4615 55.2247C90.4266 48.3009 90.5347 40.478 91.1001 36.7925C91.6609 33.1373 93.4176 30.0014 95.0427 27.7733C95.8544 26.6604 96.6307 25.7774 97.2036 25.1732C97.49 24.8712 97.7253 24.639 97.8885 24.4828C97.9436 24.43 97.9905 24.386 98.0283 24.3508L109.169 28.5341L109.973 30.688L109.981 30.7256L110.014 30.891L110.14 31.5117C110.247 32.0426 110.399 32.792 110.577 33.6661C110.934 35.4144 111.398 37.6622 111.824 39.6594C112.247 41.6406 113.278 50.038 114.205 57.9625C114.668 61.9198 115.104 65.7524 115.425 68.5958C115.585 70.0174 115.716 71.1917 115.808 72.0106L115.913 72.9589Z" fill="#31FFE6" stroke="black" stroke-width="0.5" stroke-linecap="round" stroke-linejoin="round"/>
<path d="M117.844 58.0107L117.323 62.0352C117.373 62.0792 117.443 62.1383 117.529 62.2078C117.723 62.3645 117.996 62.5731 118.317 62.7813C118.969 63.205 119.772 63.5975 120.479 63.5975C121.255 63.5975 121.853 63.562 122.255 63.5268C122.456 63.5091 122.608 63.4916 122.709 63.4786C122.759 63.4721 122.797 63.4667 122.822 63.463L122.849 63.4588L122.856 63.4578L122.857 63.4576L122.857 63.4576C122.857 63.4576 122.857 63.4576 122.857 63.4576L122.898 63.7041C122.898 63.7041 124.466 64.7076 124.895 64.1342C125.325 63.568 125.325 62.1416 124.895 61.7116C124.809 61.625 124.642 61.446 124.425 61.2142C123.566 60.2945 121.931 58.5434 121.474 58.4289L117.844 58.0107ZM117.844 58.0107L118.108 58.0572C118.424 58.1131 118.851 58.189 119.296 58.2691C120.189 58.43 121.138 58.6054 121.414 58.6716" stroke="black" stroke-width="0.5" stroke-linecap="round" stroke-linejoin="round"/>
<path d="M98.7623 28.0062C98.7874 27.9987 98.8109 27.9874 98.832 27.9729C100.51 27.4706 101.995 27.4881 103.287 27.8943C104.596 28.3059 105.724 29.1217 106.66 30.2329C108.537 32.4605 109.631 35.8605 109.843 39.4643C110.055 43.0455 109.074 45.2312 108.064 46.5172C107.557 47.1626 107.039 47.5869 106.65 47.8488C106.455 47.9797 106.293 48.07 106.182 48.1269C106.126 48.1553 106.083 48.1754 106.054 48.188C106.046 48.1915 106.04 48.1944 106.034 48.1968C106.03 48.1987 106.026 48.2002 106.023 48.2014L106.016 48.2042L106.016 48.2044L106.015 48.2045L106.015 48.2046C105.922 48.241 105.859 48.3298 105.856 48.4301L105.634 55.8985C105.63 56.0296 105.729 56.1414 105.859 56.1547L105.884 55.9059C105.859 56.1547 105.859 56.1547 105.859 56.1547L105.859 56.1547L105.861 56.1548L105.867 56.1554L105.89 56.1578L105.98 56.1671C106.058 56.1753 106.174 56.1874 106.322 56.2031C106.618 56.2344 107.042 56.2799 107.553 56.3368C108.576 56.4506 109.951 56.6097 111.356 56.7909C112.761 56.9722 114.195 57.1752 115.338 57.3768C115.909 57.4776 116.405 57.5775 116.786 57.6733C116.976 57.7212 117.135 57.7672 117.258 57.8107C117.387 57.856 117.46 57.8925 117.492 57.9157L117.493 57.9162C117.684 58.0514 117.839 58.2904 117.951 58.6184C118.062 58.9436 118.122 59.3333 118.139 59.7368C118.174 60.5545 118.031 61.3625 117.843 61.7353L117.843 61.7361C117.79 61.8418 117.635 61.9464 117.323 62.0105C117.025 62.0716 116.653 62.0814 116.278 62.0639C115.906 62.0465 115.546 62.0028 115.277 61.9633C115.143 61.9435 115.032 61.9249 114.956 61.9113C114.917 61.9044 114.887 61.8989 114.867 61.8951L114.845 61.8907L114.839 61.8896L114.838 61.8894L114.838 61.8894C114.798 61.8813 114.756 61.8832 114.717 61.895L114.789 62.1344C114.717 61.895 114.717 61.895 114.717 61.895L114.716 61.8952L114.714 61.8958L114.706 61.8982L114.674 61.9077L114.55 61.9448C114.44 61.9772 114.28 62.0248 114.075 62.0851C113.665 62.2057 113.077 62.3771 112.367 62.5807C110.945 62.9879 109.033 63.5234 107.067 64.0365C105.101 64.5499 103.086 65.04 101.457 65.3573C100.642 65.5161 99.9295 65.6306 99.3705 65.6836C99.0908 65.7102 98.8545 65.7209 98.6658 65.715C98.4714 65.709 98.3497 65.6859 98.2855 65.6593C97.4736 65.3225 96.759 64.7449 96.2486 64.0976C95.7346 63.4459 95.4478 62.7502 95.4478 62.1846C95.4478 61.8516 95.3355 60.318 95.1742 58.1567C95.1552 57.902 95.1355 57.6384 95.1152 57.3666C94.9624 55.3224 94.7754 52.8205 94.5954 50.2353C94.1868 44.3671 93.8166 38.1002 93.9585 35.7663L93.9585 35.7659C94.0938 33.4875 95.2035 31.5712 96.3437 30.2013C96.9127 29.5177 97.4855 28.9748 97.9395 28.5965C98.1666 28.4073 98.3626 28.2604 98.512 28.1583C98.5869 28.1071 98.6485 28.0683 98.6952 28.0415C98.7348 28.0187 98.7554 28.0094 98.7612 28.0068C98.7631 28.006 98.7634 28.0058 98.7623 28.0062ZM118.067 61.8477C118.496 60.9948 118.639 58.4217 117.637 57.7121L118.067 61.8477Z" fill="white" stroke="black" stroke-width="0.5" stroke-linecap="round" stroke-linejoin="round"/>
<path d="M106.092 48.4519L105.67 38.0376" stroke="black" stroke-width="0.5" stroke-linecap="round" stroke-linejoin="round"/>
<path d="M106.934 89.1508C106.979 89.2228 107.019 89.2893 107.055 89.3502L86.7219 85.2794C86.7092 85.2167 86.6948 85.1345 86.682 85.035C86.649 84.7795 86.6265 84.4115 86.6704 83.9687C86.758 83.0859 87.11 81.8996 88.183 80.7077C88.7369 80.0924 89.2072 79.6397 89.7088 79.3525C90.2007 79.0709 90.7336 78.9426 91.4252 79.0012C92.1259 79.0607 92.9924 79.3124 94.1428 79.8028C95.2914 80.2924 96.7081 81.0134 98.5062 81.9996C102.082 83.9609 104.284 85.9233 105.589 87.3876C106.241 88.12 106.67 88.7285 106.934 89.1508Z" fill="#D6D6D6" stroke="black" stroke-width="0.5" stroke-linecap="round" stroke-linejoin="round"/>
<path d="M145.456 150.554L140.859 150.689L141.012 134.412L143.408 134.286L145.456 150.554Z" fill="white" stroke="black" stroke-width="0.5" stroke-linecap="round" stroke-linejoin="round"/>
<path d="M13.6911 187.702C13.6048 187.426 13.4964 187.07 13.3747 186.649C13.0714 185.599 12.6851 184.143 12.3537 182.521C12.0225 180.9 11.7451 179.107 11.6614 177.384C11.5779 175.665 11.6862 173.997 12.1386 172.635L12.1387 172.635C12.8063 170.632 13.6037 169.202 14.3417 167.879C14.5861 167.44 14.824 167.014 15.0484 166.582C15.9498 164.848 16.6696 162.977 16.8144 159.794C16.96 156.59 16.5959 154.119 16.1974 152.453C15.9981 151.62 15.7902 150.988 15.6331 150.566C15.5545 150.355 15.4886 150.197 15.4428 150.092C15.4199 150.04 15.4021 150.001 15.3902 149.975L15.3769 149.947L15.3738 149.941L15.3732 149.94L15.3732 149.94L15.3732 149.94C15.3732 149.94 15.3732 149.94 15.5968 149.828C15.8204 149.716 15.8205 149.716 15.8205 149.716L15.8207 149.717L15.8211 149.717L15.8224 149.72L15.8268 149.729L15.8429 149.763C15.8566 149.792 15.8763 149.835 15.901 149.892C15.9503 150.005 16.0197 150.172 16.1016 150.391C16.1553 150.535 16.2142 150.702 16.2765 150.891L13.6911 187.702ZM13.6911 187.702C13.6514 187.676 13.61 187.648 13.5669 187.619C13.1402 187.331 12.555 186.898 11.9247 186.32C10.6624 185.164 9.22939 183.438 8.51319 181.147C7.80958 178.885 8.44038 176.831 9.10211 174.77L9.14346 174.641C9.78434 172.648 10.4347 170.624 9.68376 168.523C8.93771 166.434 7.74837 164.651 6.74978 163.392C6.24984 162.762 5.79607 162.261 5.46672 161.917C5.302 161.746 5.16828 161.613 5.07532 161.523C5.02884 161.478 4.99253 161.443 4.96762 161.42L4.93896 161.393L4.93132 161.386L4.92922 161.384L4.92861 161.384L4.92842 161.383C4.92835 161.383 4.92829 161.383 4.76002 161.568L4.92829 161.383C4.85269 161.315 4.74282 161.299 4.65086 161.343C4.5589 161.388 4.50337 161.484 4.51066 161.586L5.04782 169.103C4.97261 169.019 4.88998 168.923 4.80111 168.818C4.36416 168.299 3.77708 167.529 3.1806 166.533C1.98741 164.541 0.759628 161.646 0.614976 158.032C0.485431 154.795 1.57431 151.73 2.7044 148.549C2.83366 148.186 2.96345 147.82 3.09203 147.453C4.33836 143.893 5.45874 140.17 4.71266 135.994M13.6911 187.702L4.71266 135.994M23.3401 96.5441C19.7722 99.9643 17.8494 104.641 17.0006 109.368C16.1518 114.097 16.3733 118.897 17.1125 122.591C17.6486 125.269 18.6149 127.649 19.5762 130.016C19.9399 130.912 20.3028 131.805 20.6414 132.713C21.8795 136.03 22.8194 139.585 22.384 144.228C21.9447 148.913 21.3594 152.129 20.8853 154.17C20.6483 155.191 20.4391 155.918 20.2899 156.388C20.2656 156.465 20.2429 156.534 20.2219 156.597L29.3755 87.629C29.3755 87.8718 29.3755 87.8718 29.3756 87.8718L29.3755 87.8718L29.3746 87.8718L29.3702 87.8719L29.351 87.8721C29.3337 87.8723 29.3072 87.8728 29.2718 87.8739C29.2467 87.8746 29.217 87.8756 29.183 87.877M23.3401 96.5441C23.3402 96.5441 23.3402 96.544 23.3403 96.544L23.5133 96.7245L23.3401 96.5442C23.3401 96.5441 23.3401 96.5441 23.3401 96.5441ZM23.3401 96.5441C26.8423 93.18 28.2806 90.9344 28.8489 89.5499C29.1323 88.8594 29.1975 88.3876 29.1979 88.1004C29.1981 88.0074 29.1914 87.9334 29.183 87.877M29.183 87.877C29.1215 87.8795 29.0457 87.8831 28.9562 87.8886C28.6782 87.9054 28.2685 87.9393 27.7456 88.0073C26.7 88.1432 25.2027 88.4156 23.4042 88.9613C19.8078 90.0524 15.0071 92.2362 10.2035 96.6083C5.44785 100.937 3.69051 108.693 3.3241 116.46C2.95848 124.21 3.98073 131.893 4.71266 135.994M29.183 87.877L4.71266 135.994M29.1489 87.7346C29.1489 87.7346 29.149 87.7348 29.1491 87.7351C29.1498 87.7366 29.1505 87.7381 29.1513 87.7397L29.1509 87.739L29.1503 87.7377L29.1494 87.7358C29.149 87.7349 29.1488 87.7344 29.1489 87.7346Z" fill="#8000FF" stroke="black" stroke-width="0.5" stroke-linecap="round" stroke-linejoin="round"/>
<mask id="path-31-inside-4_2044_9932" fill="white">
<path d="M209.292 112.851C209.292 112.851 211.053 124.592 199.035 131.336C187.025 138.088 172.079 132.805 162.703 117.84C153.326 102.874 124.896 64.1343 124.896 64.1343"/>
</mask>
<path d="M209.787 112.777C209.746 112.504 209.491 112.316 209.218 112.357C208.945 112.398 208.757 112.652 208.798 112.925L209.787 112.777ZM199.035 131.336L198.791 130.9L198.79 130.9L199.035 131.336ZM125.299 63.8385C125.135 63.6158 124.822 63.5678 124.6 63.7312C124.377 63.8946 124.329 64.2075 124.492 64.4301L125.299 63.8385ZM209.292 112.851C208.798 112.925 208.798 112.925 208.798 112.925C208.798 112.925 208.798 112.925 208.798 112.925C208.798 112.925 208.798 112.925 208.798 112.925C208.798 112.926 208.798 112.928 208.798 112.93C208.799 112.934 208.8 112.941 208.801 112.951C208.804 112.97 208.808 113.001 208.812 113.041C208.822 113.123 208.834 113.246 208.846 113.406C208.87 113.726 208.891 114.196 208.88 114.782C208.858 115.954 208.706 117.589 208.189 119.429C207.158 123.099 204.667 127.602 198.791 130.9L199.28 131.772C205.421 128.326 208.059 123.586 209.152 119.7C209.697 117.762 209.856 116.04 209.88 114.801C209.891 114.18 209.869 113.68 209.843 113.332C209.83 113.158 209.817 113.022 209.806 112.928C209.801 112.881 209.796 112.845 209.793 112.82C209.791 112.807 209.79 112.797 209.789 112.79C209.788 112.786 209.788 112.784 209.787 112.781C209.787 112.78 209.787 112.779 209.787 112.779C209.787 112.778 209.787 112.778 209.787 112.778C209.787 112.777 209.787 112.777 209.292 112.851ZM198.79 130.9C187.089 137.478 172.413 132.397 163.126 117.574L162.279 118.105C171.745 133.214 186.96 138.698 199.28 131.772L198.79 130.9ZM163.126 117.574C158.428 110.076 148.967 96.6367 140.689 85.0837C136.549 79.3047 132.701 73.9935 129.889 70.1271C128.482 68.1939 127.335 66.6218 126.539 65.533C126.141 64.9886 125.831 64.5651 125.62 64.2775C125.515 64.1338 125.435 64.024 125.381 63.9502C125.354 63.9133 125.333 63.8854 125.319 63.8667C125.312 63.8573 125.307 63.8503 125.304 63.8456C125.302 63.8432 125.301 63.8414 125.3 63.8402C125.299 63.8397 125.299 63.8392 125.299 63.8389C125.299 63.8386 125.299 63.8385 124.896 64.1343C124.492 64.4301 124.493 64.4302 124.493 64.4305C124.493 64.4308 124.493 64.4313 124.494 64.4319C124.495 64.433 124.496 64.4348 124.498 64.4371C124.501 64.4418 124.506 64.4488 124.513 64.4582C124.527 64.4768 124.547 64.5047 124.574 64.5415C124.628 64.6152 124.709 64.7248 124.814 64.8685C125.024 65.1557 125.334 65.5791 125.732 66.1232C126.527 67.2114 127.674 68.7829 129.08 70.7154C131.891 74.5804 135.737 79.8896 139.876 85.6662C148.158 97.2246 157.6 110.638 162.279 118.105L163.126 117.574Z" fill="black" mask="url(#path-31-inside-4_2044_9932)"/>
<path d="M196.312 70.7223C196.331 70.7173 196.352 70.7148 196.372 70.7148H196.387C196.397 70.7148 196.407 70.7154 196.416 70.7166L200.654 71.2255C200.716 71.233 200.774 71.2639 200.815 71.3119L204.325 75.4441C204.315 75.3979 204.308 75.351 204.301 75.3042C204.266 75.045 204.262 74.7139 204.257 74.3649C204.255 74.2323 204.253 74.0971 204.249 73.9622C204.221 72.9349 204.095 71.835 203.334 71.1507C202.532 70.4289 201.775 70.1869 200.875 69.9821C200.729 69.9489 200.579 69.9167 200.424 69.8835C199.62 69.7108 198.694 69.5118 197.58 69.0142C197.299 68.8885 196.88 68.8127 196.328 68.7946C195.781 68.7766 195.123 68.8156 194.377 68.9052C192.885 69.0845 191.062 69.4635 189.107 69.9748C185.196 70.9974 180.779 72.5428 177.465 74.0521C174.128 75.5719 165.33 79.0226 157.376 82.0899C153.396 83.6243 149.625 85.064 146.849 86.1201C145.461 86.6481 144.321 87.0802 143.529 87.3804C143.133 87.5304 142.823 87.6475 142.613 87.7271L142.396 87.8091L141.549 90.0117C141.615 90.0058 141.689 89.9993 141.769 89.9922C142.144 89.9586 142.651 89.9121 143.179 89.8602C143.708 89.8083 144.256 89.7512 144.714 89.6964C145.18 89.6407 145.533 89.5895 145.684 89.5513L145.686 89.5508C145.824 89.517 146.045 89.4235 146.327 89.2813C146.604 89.1418 146.922 88.9645 147.248 88.7748C147.698 88.5134 148.155 88.2334 148.536 88.0001C148.71 87.8936 148.868 87.7968 149.002 87.716L149.003 87.7155C149.45 87.4488 150.274 87.1031 150.97 86.8294C151.321 86.691 151.645 86.5688 151.882 86.4812C152 86.4373 152.097 86.4021 152.163 86.3778L152.241 86.3499L152.261 86.3426L152.266 86.3407L152.268 86.3402L152.268 86.3401L152.268 86.3401L152.352 86.5755L152.268 86.34C152.353 86.3098 152.448 86.3274 152.516 86.3863C152.584 86.4452 152.615 86.5363 152.597 86.6246L151.596 91.6246C151.832 91.3181 152.091 90.939 152.293 90.5349C152.439 90.2432 152.728 89.9012 153.079 89.533C153.418 89.1775 153.837 88.7767 154.286 88.3468L154.353 88.2818C155.308 87.3676 156.394 86.3196 157.229 85.2334C158.1 84.0951 159.104 83.3947 159.891 82.9786C160.284 82.7705 160.624 82.6332 160.867 82.5475C160.988 82.5046 161.086 82.4746 161.154 82.4551C161.188 82.4453 161.215 82.4382 161.233 82.4334L161.255 82.4279L161.262 82.4264L161.264 82.4259L161.264 82.4258L161.264 82.4257C161.265 82.4257 161.265 82.4256 161.321 82.6692L161.265 82.4256C161.335 82.4094 161.409 82.4244 161.468 82.4668C161.526 82.5092 161.563 82.5748 161.57 82.6468L161.834 85.5779L162.964 83.5647L162.964 83.5644C163.37 82.8428 164.069 82.172 164.866 81.5756C165.667 80.9766 166.585 80.4396 167.45 79.9907C168.315 79.5414 169.132 79.1779 169.732 78.9268C170.032 78.8012 170.278 78.7035 170.45 78.6371C170.535 78.6039 170.603 78.5786 170.649 78.5614L170.701 78.5419L170.715 78.5369L170.718 78.5356L170.719 78.5352L170.72 78.5351C170.72 78.5351 170.72 78.5351 170.805 78.7702L170.72 78.5351C170.827 78.4961 170.948 78.5352 171.012 78.63C171.076 78.7247 171.068 78.851 170.992 78.9364C170.992 78.9364 170.992 78.9364 170.992 78.9364L170.992 78.9365L170.991 78.9371L170.988 78.94L170.978 78.9522C170.971 78.9602 170.961 78.9711 170.949 78.9849C170.945 78.9902 170.94 78.9958 170.935 79.0019C170.897 79.046 170.842 79.1114 170.773 79.196C170.635 79.3651 170.441 79.6103 170.222 79.9132C169.782 80.52 169.241 81.3525 168.828 82.2636C168.636 82.6876 168.501 83.4337 168.413 84.3478C168.327 85.2517 168.29 86.2877 168.279 87.2699C168.27 88.158 168.282 88.999 168.298 89.654C168.333 89.5599 168.369 89.462 168.408 89.3609C168.747 88.467 169.216 87.3132 169.729 86.2846C170.264 85.2147 171.147 84.3817 172.197 83.6101C172.841 83.136 173.568 82.6727 174.324 82.1899C174.789 81.8935 175.265 81.5898 175.741 81.2716C178.224 79.6118 179.55 77.1191 180.048 75.7939C180.079 75.7111 180.101 75.6536 180.113 75.6249C180.115 75.6201 180.122 75.6046 180.13 75.5891C180.133 75.5848 180.138 75.5749 180.147 75.5633C180.151 75.5574 180.163 75.5439 180.17 75.5362C180.181 75.5249 180.216 75.4988 180.239 75.4856C180.283 75.469 180.397 75.4645 180.461 75.4861C180.511 75.5191 180.571 75.5942 180.586 75.6279C180.603 75.6773 180.6 75.7205 180.599 75.7251L180.599 75.7255C180.598 75.7458 180.594 75.7625 180.594 75.7661L180.594 75.7665C180.592 75.773 180.591 75.7789 180.59 75.7831C180.587 75.7917 180.585 75.8011 180.582 75.8101C180.567 75.8632 180.53 75.9785 180.479 76.1366C180.464 76.1816 180.449 76.23 180.432 76.2815C180.282 76.7525 180.045 77.5013 179.823 78.2811C179.601 79.0639 179.399 79.8661 179.314 80.4474C179.275 80.7167 179.265 80.9145 179.279 81.036C179.486 80.952 179.747 80.8007 180.056 80.586C180.408 80.3407 180.808 80.0229 181.238 79.6545C182.098 78.9179 183.066 77.9896 183.999 77.0593C184.881 76.1791 185.38 75.6045 185.79 75.1318C185.811 75.1077 185.832 75.0838 185.852 75.0602C186.278 74.5702 186.625 74.1775 187.233 73.6567L196.312 70.7223ZM196.312 70.7223L196.372 70.9648M196.312 70.7223L196.372 70.9648M196.372 70.9648C196.312 70.7223 196.312 70.7223 196.311 70.7223M196.372 70.9648L196.311 70.7223M196.311 70.7223L196.311 70.7224M196.311 70.7223L196.311 70.7224M196.311 70.7224L196.311 70.7225M196.311 70.7224L196.311 70.7225M196.311 70.7225L196.309 70.7229M196.311 70.7225L196.309 70.7229M196.309 70.7229L196.304 70.7242M196.309 70.7229L196.304 70.7242M196.304 70.7242L196.285 70.7291M196.304 70.7242L196.285 70.7291M196.285 70.7291C196.269 70.7334 196.245 70.7398 196.214 70.7484M196.285 70.7291L196.214 70.7484M196.214 70.7484C196.152 70.7655 196.062 70.7913 195.947 70.8265M196.214 70.7484L195.947 70.8265M195.947 70.8265C195.717 70.8967 195.389 71.0044 194.992 71.1548M195.947 70.8265L194.992 71.1548M194.992 71.1548C194.197 71.4554 193.123 71.9278 192.004 72.6154M194.992 71.1548L192.004 72.6154M192.004 72.6154C190.884 73.3033 189.772 74.2042 188.943 74.9292M192.004 72.6154L188.943 74.9292M188.943 74.9292C188.629 75.2032 188.355 75.4529 188.136 75.6578M188.943 74.9292L188.136 75.6578M188.136 75.6578C188.184 75.38 188.232 75.0602 188.257 74.7574C188.273 74.5604 188.281 74.3654 188.272 74.1911C188.263 74.0222 188.238 73.8493 188.175 73.7107C188.108 73.5641 187.974 73.4132 187.75 73.4132C187.566 73.4132 187.391 73.5208 187.234 73.6563L188.136 75.6578ZM205.477 76.7775C205.479 76.7879 205.481 76.7983 205.484 76.8087L204.868 76.0834C204.885 76.0857 204.902 76.0874 204.92 76.0883C205.07 76.0963 205.179 76.1647 205.268 76.2815C205.363 76.4058 205.431 76.5813 205.477 76.7775ZM180.106 75.6577L180.105 75.6587C180.106 75.654 180.107 75.653 180.106 75.6577Z" fill="#8000FF" stroke="black" stroke-width="0.5" stroke-linecap="round" stroke-linejoin="round"/>
<mask id="path-34-inside-5_2044_9932" fill="white">
<path d="M194.447 74.2834C194.447 74.2834 196.38 69.9256 197.675 68.7931C198.964 67.6607 201.061 64.4353 202.027 63.138C202.994 61.8479 203.316 62.1704 203.158 65.8831C202.994 69.5959 203.323 71.5383 202.027 72.5059C200.732 73.4735 197.511 74.4411 197.511 74.4411"/>
</mask>
<path d="M194.447 74.2834C194.447 74.2834 196.38 69.9256 197.675 68.7931C198.964 67.6607 201.061 64.4353 202.027 63.138C202.994 61.8479 203.316 62.1704 203.158 65.8831C202.994 69.5959 203.323 71.5383 202.027 72.5059C200.732 73.4735 197.511 74.4411 197.511 74.4411" fill="white"/>
<path d="M193.99 74.0807C193.878 74.3331 193.992 74.6285 194.245 74.7404C194.497 74.8524 194.792 74.7385 194.904 74.4861L193.99 74.0807ZM197.675 68.7931L198.004 69.1696L198.006 69.1687L197.675 68.7931ZM202.027 63.138L201.627 62.8383L201.626 62.8393L202.027 63.138ZM203.158 65.8831L203.658 65.9053L203.658 65.9043L203.158 65.8831ZM197.367 73.9622C197.102 74.0417 196.952 74.3204 197.032 74.5849C197.111 74.8494 197.39 74.9994 197.655 74.9199L197.367 73.9622ZM194.447 74.2834C194.904 74.4861 194.904 74.4861 194.904 74.4861C194.904 74.4861 194.904 74.4861 194.904 74.486C194.904 74.4859 194.904 74.4858 194.905 74.4856C194.905 74.4851 194.905 74.4844 194.905 74.4835C194.906 74.4816 194.908 74.4786 194.909 74.4747C194.913 74.4668 194.918 74.4548 194.925 74.4392C194.939 74.4078 194.96 74.3612 194.988 74.3015C195.042 74.1819 195.122 74.0093 195.222 73.7984C195.421 73.3764 195.7 72.8027 196.018 72.195C196.337 71.5862 196.693 70.9492 197.046 70.3983C197.405 69.8368 197.737 69.4033 198.004 69.1696L197.346 68.4167C196.966 68.7492 196.571 69.2851 196.203 69.8592C195.829 70.4438 195.459 71.1086 195.133 71.7308C194.806 72.3541 194.521 72.9407 194.317 73.3712C194.216 73.5865 194.134 73.7632 194.078 73.8864C194.05 73.948 194.028 73.9962 194.013 74.0292C194.006 74.0457 194 74.0584 193.996 74.067C193.994 74.0714 193.993 74.0747 193.992 74.077C193.991 74.0781 193.991 74.079 193.991 74.0796C193.991 74.0799 193.99 74.0802 193.99 74.0803C193.99 74.0804 193.99 74.0805 193.99 74.0806C193.99 74.0806 193.99 74.0807 194.447 74.2834ZM198.006 69.1687C198.698 68.5597 199.576 67.424 200.377 66.3212C201.206 65.1787 201.939 64.0937 202.428 63.4367L201.626 62.8393C201.149 63.4796 200.35 64.656 199.568 65.7336C198.756 66.8509 197.941 67.8941 197.345 68.4176L198.006 69.1687ZM202.427 63.4378C202.675 63.1079 202.82 62.9699 202.881 62.9351C202.901 62.924 202.819 62.9771 202.693 62.9349C202.572 62.8944 202.544 62.8106 202.562 62.8485C202.605 62.9386 202.661 63.1923 202.684 63.7282C202.707 64.2389 202.698 64.9384 202.659 65.862L203.658 65.9043C203.697 64.9715 203.707 64.2384 203.683 63.6848C203.66 63.1563 203.605 62.7139 203.466 62.4205C203.393 62.2667 203.258 62.0693 203.01 61.9865C202.757 61.902 202.531 61.9839 202.386 62.0661C202.12 62.2176 201.863 62.5231 201.627 62.8383L202.427 63.4378ZM202.659 65.861C202.617 66.7975 202.607 67.6229 202.594 68.3395C202.582 69.0615 202.567 69.6639 202.519 70.1773C202.423 71.2086 202.201 71.7522 201.728 72.1053L202.326 72.9065C203.149 72.2919 203.411 71.3805 203.515 70.2705C203.567 69.7133 203.582 69.0735 203.594 68.3569C203.607 67.6349 203.617 66.8252 203.658 65.9053L202.659 65.861ZM201.728 72.1053C201.144 72.5413 200.078 73.004 199.108 73.3682C198.632 73.5466 198.196 73.6954 197.878 73.7997C197.72 73.8518 197.591 73.8927 197.502 73.9204C197.458 73.9343 197.424 73.9448 197.401 73.9519C197.389 73.9554 197.381 73.9581 197.375 73.9598C197.372 73.9606 197.37 73.9613 197.369 73.9617C197.368 73.9619 197.367 73.962 197.367 73.9621C197.367 73.9622 197.367 73.9622 197.367 73.9622C197.367 73.9622 197.367 73.9622 197.367 73.9622C197.367 73.9622 197.367 73.9622 197.511 74.4411C197.655 74.9199 197.655 74.9199 197.655 74.9199C197.655 74.9199 197.655 74.9199 197.655 74.9198C197.655 74.9198 197.655 74.9197 197.656 74.9197C197.656 74.9195 197.657 74.9193 197.658 74.919C197.659 74.9185 197.662 74.9177 197.665 74.9167C197.672 74.9147 197.681 74.9118 197.694 74.908C197.719 74.9004 197.755 74.8893 197.801 74.8748C197.894 74.8458 198.027 74.8035 198.19 74.7498C198.517 74.6424 198.967 74.4889 199.459 74.3045C200.422 73.9429 201.615 73.438 202.326 72.9065L201.728 72.1053Z" fill="black" mask="url(#path-34-inside-5_2044_9932)"/>
<path d="M205.432 77.4206L197.473 80.0908L196.713 78.559L204.789 76.1384L205.432 77.4206Z" fill="#D6D6D6" stroke="black" stroke-width="0.5" stroke-linecap="round" stroke-linejoin="round"/>
<path d="M186.038 99.3783L184.585 98.4119L193.76 78.3133L194.626 80.4559L186.038 99.3783Z" fill="#D6D6D6" stroke="black" stroke-width="0.5" stroke-linecap="round" stroke-linejoin="round"/>
<mask id="path-38-inside-6_2044_9932" fill="white">
<path d="M206.479 84.9626L207.102 86.9982C207.102 86.9982 205.184 88.4962 202.528 88.188"/>
</mask>
<path d="M206.958 84.8164C206.877 84.5523 206.597 84.4037 206.333 84.4845C206.069 84.5653 205.92 84.8449 206.001 85.1089L206.958 84.8164ZM207.102 86.9982L207.41 87.3923C207.573 87.2648 207.641 87.0499 207.58 86.8519L207.102 86.9982ZM202.586 87.6913C202.312 87.6595 202.063 87.856 202.032 88.1303C202 88.4046 202.196 88.6528 202.471 88.6847L202.586 87.6913ZM206.001 85.1089L206.624 87.1445L207.58 86.8519L206.958 84.8164L206.001 85.1089ZM207.102 86.9982C206.794 86.6041 206.795 86.604 206.795 86.6039C206.795 86.6039 206.795 86.6038 206.795 86.6037C206.795 86.6036 206.795 86.6035 206.795 86.6035C206.795 86.6033 206.795 86.6033 206.795 86.6033C206.795 86.6034 206.795 86.6039 206.794 86.6047C206.792 86.6062 206.788 86.6091 206.782 86.6133C206.771 86.6216 206.753 86.6349 206.728 86.6524C206.678 86.6874 206.601 86.739 206.5 86.8011C206.297 86.9254 205.997 87.0903 205.62 87.2467C204.863 87.56 203.807 87.833 202.586 87.6913L202.471 88.6847C203.905 88.8512 205.136 88.5293 206.002 88.1706C206.436 87.991 206.782 87.8007 207.022 87.6538C207.142 87.5802 207.236 87.5173 207.301 87.4715C207.334 87.4487 207.359 87.4301 207.378 87.4166C207.387 87.4099 207.394 87.4044 207.399 87.4003C207.402 87.3983 207.404 87.3966 207.406 87.3952C207.407 87.3945 207.408 87.394 207.408 87.3935C207.409 87.3932 207.409 87.393 207.409 87.3928C207.409 87.3927 207.409 87.3926 207.41 87.3925C207.41 87.3924 207.41 87.3923 207.102 86.9982Z" fill="black" mask="url(#path-38-inside-6_2044_9932)"/>
<path d="M206.369 87.8874L206.502 89.5634C206.401 89.5515 206.267 89.5262 206.099 89.4748C205.703 89.3537 205.118 89.0864 204.351 88.5035L206.369 87.8874Z" fill="#8000FF" stroke="black" stroke-width="0.5" stroke-linecap="round" stroke-linejoin="round"/>
<path d="M205.562 116.056L204.901 113.813L217.386 107.031L218.149 108.583L205.562 116.056Z" fill="#D6D6D6" stroke="black" stroke-width="0.5" stroke-linecap="round" stroke-linejoin="round"/>
<path d="M216.85 115.666C216.753 115.811 216.522 115.916 216.136 115.881C215.761 115.847 215.302 115.682 214.858 115.382C214.413 115.082 214.086 114.719 213.912 114.385C213.733 114.042 213.74 113.788 213.838 113.642C213.935 113.496 214.166 113.392 214.552 113.427C214.927 113.461 215.386 113.626 215.83 113.926C216.275 114.226 216.602 114.589 216.776 114.923C216.955 115.266 216.948 115.519 216.85 115.666Z" fill="#8000FF" stroke="black" stroke-width="0.5" stroke-linecap="round" stroke-linejoin="round"/>
<path d="M65.4014 129.46L57.9534 135.129C58.3727 134.666 58.8819 134.135 59.4725 133.578C60.9772 132.156 63.0013 130.567 65.4014 129.46Z" stroke="black" stroke-width="0.5" stroke-linecap="round" stroke-linejoin="round"/>
</g>
<defs>
<clipPath id="clip0_2044_9932">
<rect width="220" height="225" fill="white"/>
</clipPath>
</defs>
</svg>
