<svg viewBox="0 0 102 65" fill="none" xmlns="http://www.w3.org/2000/svg">
<path d="M91.4011 0.467475L3.9248 10.8886C1.75719 11.1469 0.207209 13.0955 0.462814 15.2411L5.83703 60.3528C6.09263 62.4984 8.05704 64.0284 10.2246 63.7702L97.701 53.349C99.8686 53.0908 101.419 51.1421 101.163 48.9965L95.7887 3.88482C95.5331 1.73924 93.5687 0.209245 91.4011 0.467475Z" fill="black"/>
<g style="mix-blend-mode:screen">
<path d="M52.8738 54.2806C49.7731 54.65 46.8039 54.4538 43.9716 53.6965C41.1394 52.9392 38.5905 51.6941 36.3306 49.9655C34.0657 48.2376 32.2081 46.0777 30.7514 43.4765C29.2898 40.876 28.3672 37.9236 27.9732 34.6157C27.5791 31.3078 27.8015 28.5117 28.5774 25.7405C29.3588 22.9736 30.611 20.4785 32.3445 18.2591C34.078 16.0397 36.2065 14.2273 38.7408 12.8256C41.275 11.4239 44.1157 10.5406 47.2565 10.1664C50.8346 9.74019 54.1524 9.99572 57.2043 10.9287C60.2562 11.8616 62.9394 13.3783 65.2437 15.4799C67.5531 17.581 69.3901 20.1671 70.7644 23.2321L57.407 24.8233C56.9193 23.7665 56.2252 22.8604 55.3305 22.1094C54.4357 21.3583 53.3814 20.8079 52.1713 20.4476C50.9618 20.0922 49.6162 20.0054 48.1488 20.1802C46.3195 20.3981 44.6926 21.0308 43.263 22.0789C41.8384 23.1265 40.7805 24.5995 40.0993 26.4968C39.4181 28.3941 39.2441 30.7405 39.5771 33.536C39.8586 35.8988 40.5086 37.9756 41.5278 39.7712C42.547 41.5668 43.9622 42.9218 45.7645 43.8472C47.5663 44.7677 49.759 45.0765 52.347 44.7682C53.9752 44.5742 55.3648 44.1312 56.5102 43.4348C57.6555 42.7384 58.5918 41.8701 59.3134 40.8256C60.035 39.7811 60.5263 38.643 60.7829 37.4168L50.4658 38.6459L49.4181 29.8513L71.7809 27.1872C72.4343 30.661 72.4834 33.9393 71.9226 37.0179C71.3617 40.0965 70.2595 42.8663 68.6148 45.3173C66.97 47.7683 64.8182 49.7702 62.1642 51.3224C59.5053 52.8751 56.4072 53.8647 52.8693 54.2862L52.8738 54.2806Z" fill="#00FF00" stroke="black" stroke-width="0.5" stroke-miterlimit="10"/>
</g>
<g style="mix-blend-mode:screen">
<path d="M93.9009 35.5648C94.3743 39.5392 93.3338 42.8263 90.7791 45.4261C88.2245 48.0258 84.4644 49.6189 79.4943 50.211L61.7799 52.3214L56.7305 9.93555L73.9071 7.88927C78.5958 7.3307 82.4218 7.87379 85.3802 9.51912C88.3387 11.1645 90.0377 13.8326 90.4786 17.5334C90.699 19.3839 90.4184 21.0922 89.6372 22.6634C88.856 24.2346 87.634 25.6566 85.9718 26.9342C88.2657 27.5791 90.0917 28.6177 91.4555 30.0545C92.8142 31.4918 93.6292 33.3269 93.8964 35.5703L93.9009 35.5648ZM74.0603 16.7904L67.9796 17.5148L68.8513 24.8319L74.932 24.1075C76.8015 23.8848 78.1437 23.3869 78.9582 22.6088C79.7733 21.8357 80.1128 20.8771 79.9765 19.733C79.8402 18.5889 79.2939 17.8115 78.3218 17.2664C77.3496 16.7214 75.9292 16.5627 74.0597 16.7854L74.0603 16.7904ZM76.518 32.843L69.8996 33.6314L70.9337 42.3115L77.5521 41.5231C79.6577 41.2722 81.1738 40.6931 82.0953 39.7862C83.0168 38.8793 83.3975 37.7544 83.2381 36.4163C83.0787 35.0782 82.4514 34.1339 81.3427 33.4689C80.2339 32.8039 78.6293 32.5965 76.5186 32.8479L76.518 32.843Z" fill="#0022FF" stroke="black" stroke-width="0.5" stroke-miterlimit="10"/>
</g>
<g style="mix-blend-mode:screen">
<path d="M22.2858 57.0265L11.019 58.3687L5.96948 15.9829L23.5029 13.8941C29.3072 13.2027 33.9362 13.8973 37.3905 15.983C40.8448 18.0687 42.8387 21.3726 43.3774 25.8943C43.701 28.6102 43.2062 31.1311 41.8893 33.4673C40.5717 35.7986 38.5363 37.7513 35.7819 39.3155L48.1714 53.9427L34.7537 55.5412L24.3039 42.4788L20.6052 42.9194L22.2858 57.0265ZM18.3332 23.8481L19.5077 33.7071L25.2919 33.018C27.7945 32.7199 29.5971 32.1066 30.6995 31.1782C31.7968 30.2503 32.2473 28.9405 32.0452 27.2443C31.8432 25.548 31.097 24.3757 29.8094 23.7068C28.5224 23.0429 26.6251 22.8603 24.1174 23.159L18.3332 23.8481Z" fill="#FF0018" stroke="black" stroke-width="0.5" stroke-miterlimit="10"/>
</g>
<g style="mix-blend-mode:exclusion">
<path d="M91.4599 30.0439C90.1017 28.6115 88.2701 27.5685 85.9762 26.9236C87.6384 25.646 88.8604 24.2241 89.6416 22.6529C90.4228 21.0817 90.7035 19.3733 90.483 17.5229C90.0421 13.822 88.3431 11.1539 85.3847 9.50857C82.4263 7.86324 78.6002 7.32015 73.9115 7.87872L56.7349 9.92499L56.841 10.8154C53.8863 9.97175 50.6945 9.74661 47.2571 10.1561C44.1163 10.5303 41.2762 11.4185 38.7414 12.8152C37.5694 13.4593 36.4903 14.1983 35.4922 15.0185C32.2962 13.689 28.3008 13.3073 23.4966 13.8797L5.96817 15.9679L11.0176 58.3537L22.2895 57.0109L20.6089 42.9038L24.3076 42.4632L34.7574 55.5255L46.2404 54.1576C48.3807 54.4979 50.5973 54.5365 52.8838 54.2641C56.2156 53.8672 59.1506 52.9626 61.6999 51.5591L61.7882 52.3003L79.5026 50.19C84.4727 49.5979 88.2328 48.0047 90.7874 45.405C93.342 42.8052 94.3826 39.5181 93.9091 35.5437C93.6419 33.3003 92.8263 31.4602 91.4682 30.0278L91.4599 30.0439ZM74.0609 16.7904C75.9303 16.5676 77.3508 16.7263 78.323 17.2714C79.2945 17.8115 79.8467 18.6387 79.9776 19.738C80.1086 20.8373 79.7745 21.8407 78.9594 22.6138C78.1449 23.3919 76.8026 23.8898 74.9332 24.1125L68.8525 24.8369L68.6907 23.4789L70.7712 23.2311C70.0273 21.5641 69.138 20.0456 68.1177 18.6688L67.9808 17.5197L74.0615 16.7953L74.0609 16.7904ZM19.5082 33.707L18.3337 23.8479L24.1179 23.1589C26.334 22.8948 28.0756 23.0102 29.3418 23.5001C29.0511 24.2259 28.7936 24.9729 28.5792 25.7401C27.9746 27.8956 27.7201 30.1659 27.8157 32.5508C27.0749 32.75 26.2371 32.9053 25.2974 33.0173L19.5132 33.7064L19.5082 33.707ZM59.3146 40.8202C58.593 41.8647 57.6567 42.733 56.5114 43.4294C55.366 44.1258 53.9764 44.5689 52.3482 44.7628C49.7652 45.0706 47.5675 44.7623 45.7657 43.8418C43.964 42.9214 42.5482 41.5615 41.529 39.7658C40.8786 38.6275 40.3822 37.3699 40.036 36.0036C40.7627 35.2158 41.3806 34.3703 41.8947 33.4666C43.2072 31.1359 43.7064 28.6095 43.3829 25.8935C43.2413 24.7047 42.9974 23.5986 42.6518 22.5804C42.8501 22.4054 43.0541 22.2348 43.2648 22.0785C44.6894 21.031 46.3213 20.3977 48.1506 20.1798C49.623 20.0044 50.9642 20.0968 52.1731 20.4472C53.3826 20.8026 54.4369 21.353 55.3322 22.109C56.227 22.86 56.9211 23.7661 57.4088 24.8229L58.4893 24.6942L58.9675 28.7085L49.4193 29.846L50.467 38.6405L60.0152 37.503L60.2173 39.1992C59.9735 39.763 59.671 40.3036 59.3146 40.8202ZM82.0953 39.7812C81.1738 40.6881 79.6627 41.2667 77.5521 41.5181L70.9337 42.3066L70.7897 41.0978C71.2827 39.8031 71.6658 38.4407 71.9282 37.007C72.1431 35.816 72.2672 34.5905 72.3017 33.3403L76.518 32.838C78.6236 32.5871 80.2333 32.7939 81.3421 33.4589C82.4508 34.1239 83.0828 35.1081 83.2375 36.4064C83.3922 37.7046 83.0162 38.8694 82.0947 39.7763L82.0953 39.7812Z" stroke="black" stroke-width="0.5" stroke-miterlimit="10"/>
</g>
</svg>
