<svg viewBox="0 0 173 173" fill="none" xmlns="http://www.w3.org/2000/svg">
  <path d="M123.796 84.0008C131.499 85.0884 140.811 85.6424 152.074 86.0153C140.811 86.3881 131.499 86.9422 123.796 88.0298C111.945 89.7033 103.813 92.6507 98.2336 98.2295C92.6545 103.808 89.707 111.941 88.0334 123.791C86.9457 131.493 86.3917 140.806 86.0188 152.068C85.6459 140.806 85.0918 131.493 84.0042 123.791C82.3306 111.941 79.3831 103.808 73.804 98.2295C68.2249 92.6507 60.0924 89.7033 48.2412 88.0298C40.5391 86.9422 31.2266 86.3881 19.964 86.0153C31.2266 85.6424 40.5391 85.0884 48.2412 84.0008C60.0924 82.3273 68.2249 79.3799 73.804 73.801C79.3831 68.2222 82.3306 60.09 84.0042 48.2392C85.0918 40.5373 85.6459 31.225 86.0188 19.9627C86.3917 31.225 86.9457 40.5373 88.0334 48.2392C89.707 60.09 92.6545 68.2222 98.2336 73.801C103.813 79.3799 111.945 82.3273 123.796 84.0008Z" fill="currentColor" stroke="black"/>
</svg>
